<?xml version="1.0" standalone="no"?>
<!DOCTYPE svg PUBLIC "-//W3C//DTD SVG 20010904//EN"
 "http://www.w3.org/TR/2001/REC-SVG-20010904/DTD/svg10.dtd">
<svg version="1.0" xmlns="http://www.w3.org/2000/svg"
 width="900.000000pt" height="552.000000pt" viewBox="0 0 900.000000 552.000000"
 preserveAspectRatio="xMidYMid meet">
<metadata>
Created by potrace 1.10, written by Peter Selinger 2001-2011
</metadata>
<g transform="translate(0.000000,552.000000) scale(0.100000,-0.100000)"
fill="#000000" stroke="none">
<path d="M7445 3614 c-27 -15 -57 -30 -65 -35 -21 -11 -259 -129 -285 -140
-11 -5 -60 -31 -110 -57 l-90 -47 0 -610 0 -610 160 -81 c336 -171 449 -225
462 -220 11 5 13 160 11 913 -3 1020 5 932 -83 887z m-160 -579 c84 -20 109
-36 143 -94 l27 -46 0 -220 0 -220 -44 -3 c-32 -2 -47 1 -53 12 -11 20 -37 20
-63 2 -11 -7 -43 -18 -72 -24 -156 -34 -297 82 -253 207 16 46 35 67 87 98 40
23 197 63 249 63 49 0 53 85 5 119 -65 47 -151 35 -208 -29 -19 -22 -35 -30
-60 -30 -42 0 -51 20 -30 65 22 47 73 82 142 98 33 8 61 15 62 16 1 1 32 -6
68 -14z"/>
<path d="M7255 2719 c-71 -9 -142 -33 -167 -56 -19 -17 -25 -77 -10 -100 11
-17 76 -43 109 -43 38 0 106 35 130 67 33 45 35 149 4 142 -4 -1 -33 -5 -66
-10z"/>
<path d="M6047 3232 c-33 -37 -13 -92 33 -92 49 0 60 9 60 49 0 20 -5 42 -12
49 -18 18 -63 14 -81 -6z"/>
<path d="M1333 3224 c-10 -4 -13 -91 -13 -384 0 -412 -3 -390 56 -390 36 0 44
33 44 175 0 86 4 126 12 131 22 14 152 15 177 2 20 -11 62 -76 153 -238 34
-60 49 -71 87 -68 22 2 37 9 39 18 2 12 -97 199 -138 260 -23 34 -23 44 -1 59
98 69 131 122 131 211 0 98 -45 161 -145 206 -32 14 -74 18 -215 20 -96 2
-181 1 -187 -2z m361 -98 c66 -28 97 -97 76 -171 -16 -57 -43 -80 -108 -94
-72 -15 -215 -14 -230 1 -17 17 -17 259 1 277 16 17 213 7 261 -13z"/>
<path d="M2198 3027 c-95 -24 -152 -95 -175 -216 -29 -154 21 -286 132 -344
55 -29 195 -29 246 -1 66 36 119 100 104 124 -13 21 -74 10 -107 -19 -41 -35
-63 -46 -107 -55 -80 -15 -176 71 -169 152 l3 37 191 3 c137 2 195 6 202 15
14 17 -5 141 -28 187 -49 96 -174 146 -292 117z m148 -88 c45 -27 76 -80 72
-121 l-3 -33 -147 -3 -148 -3 0 36 c0 111 131 183 226 124z"/>
<path d="M2807 3028 c-150 -28 -198 -186 -83 -273 19 -14 71 -35 122 -48 96
-25 132 -41 151 -66 36 -47 -12 -115 -90 -126 -57 -9 -101 5 -161 52 -35 27
-51 34 -71 29 -52 -13 -25 -78 52 -123 43 -25 56 -27 147 -27 84 0 108 4 144
23 97 50 120 162 48 235 -33 32 -81 52 -196 83 -99 26 -137 70 -104 122 28 42
45 50 105 51 49 0 61 -4 109 -40 61 -45 55 -43 81 -30 25 14 24 39 -4 71 -27
32 -56 48 -122 65 -56 15 -61 15 -128 2z"/>
<path d="M4062 3029 c-23 -4 -55 -16 -71 -25 -29 -17 -33 -16 -80 11 -17 10
-30 11 -43 4 -17 -9 -18 -27 -16 -287 l3 -277 40 0 40 0 6 201 c5 184 7 204
27 236 56 90 184 79 229 -20 13 -28 18 -81 22 -227 l6 -190 40 0 40 0 5 200
c6 231 12 252 86 288 l44 21 47 -20 c81 -33 87 -55 91 -284 3 -135 7 -197 15
-202 26 -17 67 -8 76 15 5 13 8 107 6 209 -3 160 -6 192 -24 230 -28 61 -69
97 -132 113 -47 12 -62 12 -107 1 -29 -8 -68 -28 -88 -45 -19 -17 -38 -31 -42
-31 -5 0 -25 15 -46 34 -20 19 -51 38 -69 41 -18 4 -39 8 -47 10 -8 1 -34 -1
-58 -6z"/>
<path d="M4993 3030 c-76 -16 -130 -54 -153 -110 -11 -27 -11 -33 1 -41 28
-17 53 -8 100 36 46 43 51 45 108 45 54 0 63 -3 95 -34 29 -26 36 -41 36 -70
0 -20 -6 -39 -12 -41 -7 -3 -58 -14 -113 -24 -158 -31 -213 -58 -246 -122 -10
-21 -19 -53 -19 -71 0 -42 38 -99 87 -129 33 -21 50 -24 125 -23 78 1 92 4
129 28 22 15 42 26 44 24 1 -2 8 -13 14 -25 9 -17 21 -23 46 -23 l35 0 1 108
c3 269 -2 353 -22 386 -27 46 -66 71 -133 84 -66 13 -64 13 -123 2z m185 -350
c6 -86 -76 -164 -170 -163 -55 1 -91 21 -113 63 -14 27 -14 33 0 61 26 49 142
90 245 85 34 -1 35 -2 38 -46z"/>
<path d="M5571 3028 c-117 -26 -178 -141 -169 -316 3 -72 9 -98 32 -141 51
-99 89 -121 204 -121 72 0 83 3 120 29 53 39 66 26 56 -58 -9 -84 -39 -118
-117 -132 -87 -16 -164 16 -188 79 -7 18 -16 22 -48 22 -22 0 -42 -4 -45 -9
-12 -19 7 -71 37 -101 56 -57 100 -73 203 -72 82 0 97 3 138 27 60 35 97 84
109 143 15 74 21 611 6 628 -18 22 -76 18 -89 -6 -13 -24 -33 -26 -50 -5 -24
29 -135 48 -199 33z m161 -94 c16 -8 40 -33 55 -56 26 -38 28 -49 28 -138 0
-88 -3 -100 -27 -137 -14 -22 -42 -47 -61 -56 -71 -34 -164 -11 -199 49 -39
67 -39 221 0 289 10 16 38 40 62 53 48 25 89 23 142 -4z"/>
<path d="M6460 3026 c-142 -29 -209 -135 -198 -316 7 -121 51 -200 133 -243
58 -29 194 -29 251 1 48 25 101 82 110 119 14 54 -39 83 -75 41 -72 -82 -90
-97 -124 -103 -83 -16 -163 28 -185 103 -26 85 -11 217 30 273 21 28 82 59
118 59 41 0 96 -32 129 -75 29 -40 38 -45 72 -45 45 0 49 13 24 73 -37 89
-161 139 -285 113z"/>
<path d="M3237 3013 c-4 -3 -7 -95 -7 -203 0 -194 0 -197 28 -251 17 -35 42
-64 70 -83 39 -27 50 -30 126 -30 76 0 87 3 119 27 44 34 55 34 67 1 9 -22 15
-25 47 -22 l38 3 0 280 0 280 -45 0 -45 0 -5 -195 c-6 -221 -11 -240 -83 -280
-48 -27 -111 -23 -160 10 -56 38 -60 56 -65 273 l-4 197 -37 0 c-21 0 -41 -3
-44 -7z"/>
<path d="M6045 3007 c-3 -7 -4 -134 -3 -282 l3 -270 45 0 45 0 3 260 c1 143 0
270 -3 283 -4 18 -12 22 -46 22 -23 0 -42 -5 -44 -13z"/>
</g>
</svg>
