<?xml version="1.0" encoding="UTF-8" standalone="no"?>
<!-- Created with Inkscape (http://www.inkscape.org/) -->

<svg
   version="1.1"
   id="svg2"
   width="1521.1467"
   height="1266.6667"
   viewBox="0 0 1521.1467 1266.6667"
   sodipodi:docname="reshot-illustration-working-at-home-TE4YH7QR2Z.eps"
   xmlns:inkscape="http://www.inkscape.org/namespaces/inkscape"
   xmlns:sodipodi="http://sodipodi.sourceforge.net/DTD/sodipodi-0.dtd"
   xmlns="http://www.w3.org/2000/svg"
   xmlns:svg="http://www.w3.org/2000/svg">
  <defs
     id="defs6" />
  <sodipodi:namedview
     id="namedview4"
     pagecolor="#ffffff"
     bordercolor="#000000"
     borderopacity="0.25"
     inkscape:showpageshadow="2"
     inkscape:pageopacity="0.0"
     inkscape:pagecheckerboard="0"
     inkscape:deskcolor="#d1d1d1" />
  <g
     id="g8"
     inkscape:groupmode="layer"
     inkscape:label="ink_ext_XXXXXX"
     transform="matrix(1.3333333,0,0,-1.3333333,0,1266.6667)">
    <g
       id="g10"
       transform="scale(0.1)">
      <path
         d="m 2274.79,7941.95 c -131.94,-63.49 -502.77,-254.56 -762,-555.64 -259.25,-301.07 -391.07,-448.22 -171.72,-774.83 219.42,-326.52 -427.968,-350.23 -90.11,-518.36 391.33,-194.74 488.97,-348.51 761.06,-289.39 479.23,103.94 647.93,485.53 493.94,864.47 -154.06,378.92 -173.89,398.03 -50.66,625.19 123.26,227.2 -51.02,710.97 -180.51,648.56"
         style="fill:#241717;fill-opacity:1;fill-rule:nonzero;stroke:none"
         id="path12" />
      <path
         d="m 1402.05,6973.02 c 0,0 -136.08,-551.09 -483.109,-572.48 -179.093,-11.04 -302.867,3.01 -302.867,3.01 0,0 1038.886,-936.73 1247.966,-653.36 99.27,134.53 -303.37,305.61 -171.97,646.26 248.79,645.09 225.7,1343.99 -290.02,576.57"
         style="fill:#f6ab7a;fill-opacity:1;fill-rule:nonzero;stroke:none"
         id="path14" />
      <path
         d="m 1792.69,7294.56 c -94.12,-62.57 -198.37,-96.63 -301.39,-104.33 224.94,-447.56 676.13,-374.96 691.21,-371.64 16.13,3.73 32.18,7.05 46.43,33.7 14.26,26.77 17.58,54.98 13.45,68.67 -4.06,13.6 -18.29,27.24 -13.9,29.93 4.54,2.61 34.3,20.41 41.7,24.86 7.37,4.46 9.42,27.87 9.42,27.87 0,0 -23.28,22.31 -21.85,23.21 38.69,23.05 42.6,43.51 44.06,54.5 1.5,11.02 -13.49,27.23 -26.31,40.68 -10.86,11.68 -9.69,46.74 -5.18,59.49 4.4,12.62 43.33,31.83 50.16,44.04 6.96,12.22 12.87,35.8 7.89,40.84 -5.1,5.18 -24.4,18.38 -61.51,44.62 -37.16,26.21 -85.81,93.96 -85.54,215.06 0.3,121.04 -28.75,114.62 -52.18,169.27 -59.84,139.86 -123.33,-259.29 -336.46,-400.77"
         style="fill:#f6ab7a;fill-opacity:1;fill-rule:nonzero;stroke:none"
         id="path16" />
      <path
         d="m 1925.78,3784.83 1634.9,295.68 c 0,0 521.77,139.14 626.13,-347.84 121.63,-567.63 382.63,-3095.869 382.63,-3095.869 l 17.4,-121.75 800.05,-434.8205 H 4169.41 l 86.97,382.6405 -730.49,2574.089 c 0,0 -1252.26,-365.24 -1669.68,-365.24 -417.42,0 -730.49,156.53 -730.49,226.1 0,69.57 504.39,921.81 800.06,887.01"
         style="fill:#212a53;fill-opacity:1;fill-rule:nonzero;stroke:none"
         id="path18" />
      <path
         d="m 452.859,2098.7 c -68.871,0 -177.546,15.72 -272.754,98.62 -137.0386,119.15 -196.312,331.17 -176.31984,629.85 13.35934,201.67 92.73434,405.76 176.73084,622.02 141.558,363.66 301.789,775.83 217.98,1320.91 l 155.715,23.96 C 644.371,4207.2 468.586,3755.25 327.543,3392.09 244.52,3178.68 172.75,2994.22 160.914,2816.79 c -16.094,-242.3 25.688,-414.95 121.203,-499.25 90.363,-79.99 203.465,-59.44 208.238,-58.55 l 31.586,-154.38 c -2.89,-0.57 -29.363,-5.91 -69.082,-5.91"
         style="fill:#3b6d83;fill-opacity:1;fill-rule:nonzero;stroke:none"
         id="path20" />
      <path
         d="M 1660.77,848.742 1814.2,614.73 525.496,201.93 c 0,0 -86.125,82.312 230.149,247.609 368.085,192.711 905.125,399.203 905.125,399.203"
         style="fill:#8ec1dd;fill-opacity:1;fill-rule:nonzero;stroke:none"
         id="path22" />
      <path
         d="M 1889.62,848.742 1736.21,614.73 3024.88,201.93 c 0,0 86.04,82.312 -230.16,247.609 -368.14,192.711 -905.1,399.203 -905.1,399.203"
         style="fill:#8ec1dd;fill-opacity:1;fill-rule:nonzero;stroke:none"
         id="path24" />
      <path
         d="m 1909.85,586.012 h -269.28 v 958.758 h 269.28 V 586.012"
         style="fill:#8ec1dd;fill-opacity:1;fill-rule:nonzero;stroke:none"
         id="path26" />
      <path
         d="M 1643.57,799.379 1774.83,576.129 671.699,182.242 c 0,0 -73.648,78.508 196.891,236.36 315.26,183.808 774.98,380.777 774.98,380.777"
         style="fill:#b3daf4;fill-opacity:1;fill-rule:nonzero;stroke:none"
         id="path28" />
      <path
         d="M 1906.74,799.379 1775.61,576.129 2878.69,182.242 c 0,0 73.65,78.508 -196.99,236.36 -315.19,183.808 -774.96,380.777 -774.96,380.777"
         style="fill:#b3daf4;fill-opacity:1;fill-rule:nonzero;stroke:none"
         id="path30" />
      <path
         d="M 796.617,93.4609 C 796.617,41.832 754.629,0 703.066,0 c -51.683,0 -93.613,41.832 -93.613,93.4609 0,51.7891 41.93,93.7381 93.613,93.7381 51.563,0 93.551,-41.949 93.551,-93.7381"
         style="fill:#17233f;fill-opacity:1;fill-rule:nonzero;stroke:none"
         id="path32" />
      <path
         d="M 2934.15,93.4609 C 2934.15,41.832 2892.06,0 2840.43,0 c -51.69,0 -93.55,41.832 -93.55,93.4609 0,51.7891 41.86,93.7381 93.55,93.7381 51.63,0 93.72,-41.949 93.72,-93.7381"
         style="fill:#17233f;fill-opacity:1;fill-rule:nonzero;stroke:none"
         id="path34" />
      <path
         d="M 570.082,93.4609 C 570.082,41.832 528.219,0 476.531,0 c -51.695,0 -93.625,41.832 -93.625,93.4609 0,51.7891 41.93,93.7381 93.625,93.7381 51.688,0 93.551,-41.949 93.551,-93.7381"
         style="fill:#3b6d83;fill-opacity:1;fill-rule:nonzero;stroke:none"
         id="path36" />
      <path
         d="M 3160.57,93.4609 C 3160.57,41.832 3118.65,0 3066.98,0 c -51.58,0 -93.4,41.832 -93.4,93.4609 0,51.7891 41.82,93.7381 93.4,93.7381 51.67,0 93.59,-41.949 93.59,-93.7381"
         style="fill:#3b6d83;fill-opacity:1;fill-rule:nonzero;stroke:none"
         id="path38" />
      <path
         d="m 1870.23,1551.35 h -196.98 v 344.77 h 196.98 v -344.77"
         style="fill:#3b6d83;fill-opacity:1;fill-rule:nonzero;stroke:none"
         id="path40" />
      <path
         d="m 2017.97,2078.24 c 0,-105.98 -86.05,-192 -192.04,-192 h -108.38 c -105.99,0 -192.02,86.02 -192.02,192 v 0 c 0,106.24 86.03,192.14 192.02,192.14 h 108.38 c 105.99,0 192.04,-85.9 192.04,-192.14 v 0"
         style="fill:#3b6d83;fill-opacity:1;fill-rule:nonzero;stroke:none"
         id="path42" />
      <path
         d="m 3235.82,2253.92 c 4.58,22.63 7.25,164.41 7.25,188.76 0,155.09 -100.13,280.74 -223.88,280.74 H 524.172 c -123.539,0 -223.852,-125.65 -223.852,-280.74 0,-24.35 2.668,-166.13 7.473,-188.76 H 3235.82"
         style="fill:#9dd1f2;fill-opacity:1;fill-rule:nonzero;stroke:none"
         id="path44" />
      <path
         d="m 277.289,2177.93 c 0,-47.52 27.672,-86.07 62.063,-86.07 H 3204.13 c 34.39,0 62.07,38.55 62.07,86.07 v 0 c 0,47.43 -27.68,85.92 -62.07,85.92 H 339.352 c -34.391,0 -62.063,-38.49 -62.063,-85.92 v 0"
         style="fill:#3b6d83;fill-opacity:1;fill-rule:nonzero;stroke:none"
         id="path46" />
      <path
         d="m 416.93,3694.6 c 61.617,-4.51 452.664,-11.42 520.058,-12.28 428.152,-5.16 796.832,75.19 817.382,180.63 84.48,438.12 88.3,887.48 11.06,1325.87 -18.29,105.35 -392.49,185.7 -829.688,180.36 -68.637,-0.83 -467.812,-7.77 -530.605,-12.4 C 539.246,4810.41 543.133,4241.15 416.93,3694.6"
         style="fill:#9dd1f2;fill-opacity:1;fill-rule:nonzero;stroke:none"
         id="path48" />
      <path
         d="m 358.109,5356.85 c -47.886,-0.57 -81.343,-23.35 -74.668,-50.81 119.204,-513.85 123.653,-1046.94 13.434,-1560.87 -6.078,-27.58 27.07,-50.31 73.949,-50.84 v 0 c 46.891,-0.69 90.328,21.35 96.219,48.94 111.727,515.24 108.348,1049.52 -10.172,1564.66 -6.457,27.65 -50.637,49.54 -98.762,48.92 v 0"
         style="fill:#3b6d83;fill-opacity:1;fill-rule:nonzero;stroke:none"
         id="path50" />
      <path
         d="m 339.027,3695.43 c 12.618,-4.06 97.477,-7.21 112.289,-7.5 93.282,-1.13 189.372,81.2 207.911,184.84 77.668,431.6 75.796,874.13 -6.039,1305.73 -19.422,103.75 -117.852,185.9 -213.051,184.81 -15.063,-0.27 -101.348,-3.5 -114.27,-7.59 134.383,-545.67 138.742,-1114.44 13.16,-1660.29"
         style="fill:#8cc4ec;fill-opacity:1;fill-rule:nonzero;stroke:none"
         id="path52" />
      <path
         d="m 1666.21,4070.27 1254.85,1018.29 c 0,0 239.8,-26.29 127.2,-179.5 -112.61,-153.21 -856.4,-1052.43 -856.4,-1052.43 0,0 -759.34,-344.69 -525.65,213.64"
         style="fill:#ed8656;fill-opacity:1;fill-rule:nonzero;stroke:none"
         id="path54" />
      <path
         d="m 3219.07,510.699 c 0,0 -17.39,-169.59 -17.39,-221.75 0,-52.179 113.04,-200.0076 121.75,-243.4998 8.69,-43.47654 8.69,-43.47654 8.69,-43.47654 h -852.23 c 0,0 -17.39,86.96874 121.75,200.00734 139.14,113.051 182.62,191.321 200.01,334.809 17.39,143.481 417.42,-26.09 417.42,-26.09"
         style="fill:#cbe6f8;fill-opacity:1;fill-rule:nonzero;stroke:none"
         id="path56" />
      <path
         d="m 1701.34,6432.85 c 0,0 495.68,-78.27 560.91,-273.93 65.22,-195.67 39.13,-313.07 39.13,-404.38 0,-91.31 -626.13,326.11 -600.04,678.31"
         style="fill:#7ba42a;fill-opacity:1;fill-rule:nonzero;stroke:none"
         id="path58" />
      <path
         d="m 1166.52,6498.07 534.82,-65.22 c 0,0 600.04,-626.14 730.48,-652.22 130.45,-26.09 -45.28,-1454.51 -13.05,-1647.94 17.4,-104.36 -469.59,-152.18 -730.48,-191.32 -260.89,-39.13 -626.13,0 -626.13,0 0,0 130.45,417.42 39.13,847.88 -91.31,430.47 -495.681,756.58 -404.372,1056.6 91.312,300.02 -169.574,300.02 469.602,652.22"
         style="fill:#90ca23;fill-opacity:1;fill-rule:nonzero;stroke:none"
         id="path60" />
      <path
         d="m 788.23,6145.87 c 0,0 143.489,-404.38 117.399,-665.26 -26.086,-260.89 -104.356,-900.06 -104.356,-900.06 0,0 -156.531,-743.53 -456.55,-652.22 -300.0199,91.31 -273.9339,939.19 -65.227,1474.01 208.711,534.82 417.422,873.98 508.734,743.53"
         style="fill:#7ba42a;fill-opacity:1;fill-rule:nonzero;stroke:none"
         id="path62" />
      <path
         d="m 194.359,4187.15 c 0,0 13.047,-150.01 13.047,-182.62 0,-32.62 143.492,-71.75 293.5,-71.75 150.012,0 1258.784,639.18 1363.134,684.84 104.36,45.65 345.68,110.88 404.38,117.4 58.7,6.52 104.36,169.57 71.74,273.93 -21.57,69.05 -43.15,129.54 -76.07,149.33 -16.83,10.12 -36.62,9.6 -60.89,-5.84 -71.75,-45.66 -358.72,-293.5 -358.72,-293.5 0,0 -671.79,-123.92 -939.199,-241.32 C 637.875,4500.21 324.805,4356.73 194.359,4187.15"
         style="fill:#f6ab7a;fill-opacity:1;fill-rule:nonzero;stroke:none"
         id="path64" />
      <path
         d="m 2607.57,5113.3 -343.48,44.98 76.07,-149.33 -45.65,-228.28 189.14,-32.61 c 0,0 26.09,32.61 -6.52,45.66 -32.61,13.04 -78.26,32.6 -78.26,32.6 0,0 91.31,13.05 130.44,19.57 39.13,6.53 45.66,19.57 45.66,39.14 0,19.56 -39.14,32.61 -39.14,32.61 0,0 71.74,26.09 78.27,45.65 6.52,19.57 19.57,45.66 6.52,65.23 -13.05,19.56 6.52,71.74 -13.05,84.78"
         style="fill:#ed8656;fill-opacity:1;fill-rule:nonzero;stroke:none"
         id="path66" />
      <path
         d="m 1062.16,3941.37 h 626.13 L 3508.5,4341.4 c 0,0 730.48,191.31 539.17,-330.46 C 3856.35,3489.17 3201.44,636.801 3201.44,636.801 l -400.02,34.781 c 0,0 69.57,1895.778 260.88,2226.238 191.32,330.46 208.71,434.82 208.71,434.82 0,0 -1269.65,-678.31 -1791.43,-643.53 -521.771,34.79 -956.588,434.82 -417.42,1252.26"
         style="fill:#4349a6;fill-opacity:1;fill-rule:nonzero;stroke:none"
         id="path68" />
      <path
         d="m 1230.08,3889.19 c 0,0 -347.85,-608.74 -17.39,-678.3 330.45,-69.57 2434.95,713.09 2434.95,713.09 0,0 -544.55,-869.62 -846.22,-3252.398"
         style="fill:none;stroke:#9dd1f2;stroke-width:13.9797;stroke-linecap:butt;stroke-linejoin:miter;stroke-miterlimit:10;stroke-dasharray:none;stroke-opacity:1"
         id="path70" />
      <path
         d="m 2503.82,4957.11 c -0.37,0.72 -0.82,1.57 -1.18,2.24 l 1.18,69.49 h 2877.09 v -69.49 c 0,0 0.47,-1.52 0,-2.24 l -7.33,-12.93 c -36.98,-60.24 -103.3,-71.07 -179.28,-71.07 H 2690.52 c -75.99,0 -142.21,10.83 -179.28,71.07 l -7.42,12.93"
         style="fill:#d3e1e8;fill-opacity:1;fill-rule:nonzero;stroke:none"
         id="path72" />
      <path
         d="m 3197.2,4945.4 c 0,0 0.46,-1.22 0,-1.91 l -7.15,-10.51 c -11.37,-15.51 -25.65,-27.01 -42.07,-35.35 h -437.47 c -73.09,0 -136.89,8.72 -172.46,57.42 l -6.88,10.6 c -0.52,0.57 -0.9,1.14 -1.3,1.76 l 0.74,34.2 h 666.59 v -56.21"
         style="fill:#b6c2c8;fill-opacity:1;fill-rule:nonzero;stroke:none"
         id="path74" />
      <path
         d="m 3585.58,4963.64 h 1437.6 v 49.13 h -1437.6 v -49.13"
         style="fill:#b6c2c8;fill-opacity:1;fill-rule:nonzero;stroke:none"
         id="path76" />
      <path
         d="m 3213.16,5031.35 373.01,1413.73 c 9.88,37.42 48.05,67.62 85.33,67.62 h 2018.53 c 37.24,0 59.55,-30.2 49.68,-67.62 l -373,-1413.73 H 3213.16"
         style="fill:#d9e2e3;fill-opacity:1;fill-rule:nonzero;stroke:none"
         id="path78" />
      <path
         d="m 4354.63,5771.96 c -19.06,-72.09 24.15,-130.64 96.21,-130.64 72.25,0 146.13,58.55 165.21,130.64 19.01,72.3 -23.98,130.86 -96.23,130.86 -72.18,0 -146.14,-58.56 -165.19,-130.86"
         style="fill:#b6c2c8;fill-opacity:1;fill-rule:nonzero;stroke:none"
         id="path80" />
      <path
         d="m 7827.78,16.5898 h 294.53 L 7636.43,4722.2 H 7209.46 L 7827.78,16.5898"
         style="fill:#1f3b57;fill-opacity:1;fill-rule:nonzero;stroke:none"
         id="path82" />
      <path
         d="m 7237.89,4505.31 187.29,-1425.07 222.13,1535.79 -10.88,106.17 h -373.22 l -25.32,-216.89"
         style="fill:#212a53;fill-opacity:1;fill-rule:nonzero;stroke:none"
         id="path84" />
      <path
         d="m 5296.73,16.5898 h 294.42 L 5105.3,4722.2 H 4678.33 L 5296.73,16.5898"
         style="fill:#1f3b57;fill-opacity:1;fill-rule:nonzero;stroke:none"
         id="path86" />
      <path
         d="m 4706.82,4505.31 187.24,-1425.07 222.26,1535.79 -11.02,106.17 h -373.21 l -25.27,-216.89"
         style="fill:#212a53;fill-opacity:1;fill-rule:nonzero;stroke:none"
         id="path88" />
      <path
         d="m 2204.95,16.5898 h -294.5 L 2396.29,4722.2 H 2823.3 L 2204.95,16.5898"
         style="fill:#1f3b57;fill-opacity:1;fill-rule:nonzero;stroke:none"
         id="path90" />
      <path
         d="m 2794.81,4505.31 -571.48,-1452.22 162.07,1562.94 10.89,106.17 h 373.23 l 25.29,-216.89"
         style="fill:#212a53;fill-opacity:1;fill-rule:nonzero;stroke:none"
         id="path92" />
      <path
         d="M 5534.49,4599.97 H 1984.13 v 274.99 h 3550.36 v -274.99"
         style="fill:#516dbe;fill-opacity:1;fill-rule:nonzero;stroke:none"
         id="path94" />
      <path
         d="M 7987.48,4599.97 H 5370.3 v 274.99 h 2617.18 v -274.99"
         style="fill:#8fb0e1;fill-opacity:1;fill-rule:nonzero;stroke:none"
         id="path96" />
      <path
         d="m 2320.86,7922.77 c -14.32,60.98 -736.49,254.31 -1101.82,61.81 C 605.566,7661.3 702.031,7232.42 745.055,7165.42 1155.7,6525.88 561.754,6459.08 373.035,6327.32 160.059,6178.63 363.184,5755.98 633.926,5701.1 c 476.624,-96.64 958.994,548.59 939.194,946.97 -22,442.39 86.42,595.79 382.63,771.8 235.21,139.76 394.73,376.97 365.11,502.9"
         style="fill:#212a53;fill-opacity:1;fill-rule:nonzero;stroke:none"
         id="path98" />
      <path
         d="m 6726.33,8251.37 c 0,-394.93 -320.17,-715.11 -715.12,-715.11 H 3467.82 c -394.94,0 -715.12,320.18 -715.12,715.11 v 533.51 c 0,394.94 320.18,715.12 715.12,715.12 h 2543.39 c 394.95,0 715.12,-320.18 715.12,-715.12 v -533.51"
         style="fill:#cbe6f8;fill-opacity:1;fill-rule:nonzero;stroke:none"
         id="path100" />
      <path
         d="m 3717.35,7148.75 v 732.03 h 796.6 z"
         style="fill:#cbe6f8;fill-opacity:1;fill-rule:nonzero;stroke:none"
         id="path102" />
      <path
         d="M 3749.91,8799.16 H 5759.65"
         style="fill:none;stroke:#8fb0e1;stroke-width:76.9231;stroke-linecap:butt;stroke-linejoin:miter;stroke-miterlimit:10;stroke-dasharray:none;stroke-opacity:1"
         id="path104" />
      <path
         d="M 3749.91,8512.05 H 5759.65"
         style="fill:none;stroke:#8fb0e1;stroke-width:76.9231;stroke-linecap:butt;stroke-linejoin:miter;stroke-miterlimit:10;stroke-dasharray:none;stroke-opacity:1"
         id="path106" />
      <path
         d="M 3749.91,8224.95 H 5759.65"
         style="fill:none;stroke:#8fb0e1;stroke-width:76.9231;stroke-linecap:butt;stroke-linejoin:miter;stroke-miterlimit:10;stroke-dasharray:none;stroke-opacity:1"
         id="path108" />
      <path
         d="m 1186.76,7251.72 c 0,-99.35 80.54,-179.88 179.89,-179.88 99.36,0 179.9,80.53 179.9,179.88 0,99.35 -80.54,179.9 -179.9,179.9 -99.35,0 -179.89,-80.55 -179.89,-179.9"
         style="fill:#ffffff;fill-opacity:1;fill-rule:nonzero;stroke:none"
         id="path110" />
      <path
         d="m 2180.83,6905.92 c -299.12,-90.64 -750.35,-50.84 -814.18,345.81 -198.06,1230.95 632.9,1050.58 632.9,796.29"
         style="fill:none;stroke:#cbe6f8;stroke-width:25.7054;stroke-linecap:butt;stroke-linejoin:miter;stroke-miterlimit:10;stroke-dasharray:none;stroke-opacity:1"
         id="path112" />
      <path
         d="m 2171.42,6875.79 69.27,17.76 c 20.62,5.29 33.17,26.49 27.88,47.12 v 0 c -5.28,20.62 -26.49,33.17 -47.12,27.88 l -69.27,-17.76 c -20.62,-5.29 -33.17,-26.49 -27.88,-47.12 v 0 c 5.29,-20.62 26.49,-33.17 47.12,-27.88"
         style="fill:#ffffff;fill-opacity:1;fill-rule:nonzero;stroke:none"
         id="path114" />
      <path
         d="m 1237.53,7251.72 c 0,-71.3 57.81,-129.11 129.12,-129.11 71.31,0 129.13,57.81 129.13,129.11 0,71.32 -57.82,129.13 -129.13,129.13 -71.31,0 -129.12,-57.81 -129.12,-129.13"
         style="fill:#cbe6f8;fill-opacity:1;fill-rule:nonzero;stroke:none"
         id="path116" />
      <path
         d="m 4511.69,6709.41 h 1122.74 c 177.64,0 322.99,145.35 322.99,322.99 v 0 c 0,177.65 -145.35,323 -322.99,323 H 4511.69 c -177.65,0 -322.99,-145.35 -322.99,-323 v 0 c 0,-177.64 145.34,-322.99 322.99,-322.99"
         style="fill:#445fb5;fill-opacity:1;fill-rule:nonzero;stroke:none"
         id="path118" />
      <path
         d="M 4707.41,6737.41 4188.7,7036.88 V 6437.93 Z"
         style="fill:#445fb5;fill-opacity:1;fill-rule:nonzero;stroke:none"
         id="path120" />
      <path
         d="m 4860.53,7048.35 c 0,-50.65 -41.06,-91.71 -91.71,-91.71 -50.65,0 -91.71,41.06 -91.71,91.71 0,50.65 41.06,91.72 91.71,91.72 50.65,0 91.71,-41.07 91.71,-91.72"
         style="fill:#ffffff;fill-opacity:1;fill-rule:nonzero;stroke:none"
         id="path122" />
      <path
         d="m 5164.77,7048.35 c 0,-50.65 -41.06,-91.71 -91.71,-91.71 -50.65,0 -91.72,41.06 -91.72,91.71 0,50.65 41.07,91.72 91.72,91.72 50.65,0 91.71,-41.07 91.71,-91.72"
         style="fill:#ffffff;fill-opacity:1;fill-rule:nonzero;stroke:none"
         id="path124" />
      <path
         d="m 5469.01,7048.35 c 0,-50.65 -41.06,-91.71 -91.71,-91.71 -50.66,0 -91.71,41.06 -91.71,91.71 0,50.65 41.05,91.72 91.71,91.72 50.65,0 91.71,-41.07 91.71,-91.72"
         style="fill:#ffffff;fill-opacity:1;fill-rule:nonzero;stroke:none"
         id="path126" />
      <path
         d="m 5780.27,6063.42 c 31.38,33.99 62.91,67.21 94.55,99.59"
         style="fill:none;stroke:#8fb0e1;stroke-width:48.9403;stroke-linecap:butt;stroke-linejoin:miter;stroke-miterlimit:10;stroke-dasharray:none;stroke-opacity:1"
         id="path128" />
      <path
         d="m 6065.93,6346.61 c 782.27,702.26 1595.77,816.45 1947.39,-685.93 106.75,-456.11 -629.57,-445.66 -366.86,79.74 191.14,382.25 1599.19,71.37 2341.87,544.92"
         style="fill:none;stroke:#8fb0e1;stroke-width:48.9403;stroke-linecap:butt;stroke-linejoin:miter;stroke-miterlimit:10;stroke-dasharray:188.87, 188.87;stroke-dashoffset:0;stroke-opacity:1"
         id="path130" />
      <path
         d="m 10095.4,6363.23 c 35.3,29.21 68.4,60.79 99.1,94.95"
         style="fill:none;stroke:#8fb0e1;stroke-width:48.9403;stroke-linecap:butt;stroke-linejoin:miter;stroke-miterlimit:10;stroke-dasharray:none;stroke-opacity:1"
         id="path132" />
      <path
         d="m 9937.75,6922.52 1470.85,474.46 -1155.1,-530.24 z"
         style="fill:#a4c8ec;fill-opacity:1;fill-rule:nonzero;stroke:none"
         id="path134" />
      <path
         d="m 10335.7,6585.09 1072.9,811.89 -1155.1,-530.24 z"
         style="fill:#8fb0e1;fill-opacity:1;fill-rule:nonzero;stroke:none"
         id="path136" />
      <path
         d="m 10335.7,6585.09 1072.9,811.89 -927.8,-604.03 z"
         style="fill:#445fb5;fill-opacity:1;fill-rule:nonzero;stroke:none"
         id="path138" />
      <path
         d="m 10905.9,6429.49 502.7,967.49 -927.8,-604.03 z"
         style="fill:#a4c8ec;fill-opacity:1;fill-rule:nonzero;stroke:none"
         id="path140" />
      <path
         d="m 6334.82,4871.22 h -461.56 c -32.24,0 -58.38,26.14 -58.38,58.38 v 616.33 H 6393.2 V 4929.6 c 0,-32.24 -26.14,-58.38 -58.38,-58.38"
         style="fill:#d9f0fb;fill-opacity:1;fill-rule:nonzero;stroke:none"
         id="path142" />
      <path
         d="M 5855.22,5050.41 H 5730.5 c -28.21,0 -51.29,23.07 -51.29,51.28 v 312.14 c 0,28.21 23.08,51.28 51.29,51.28 h 124.72 c 28.21,0 51.29,-23.07 51.29,-51.28 v -312.14 c 0,-28.21 -23.08,-51.28 -51.29,-51.28 z"
         style="fill:none;stroke:#d9f0fb;stroke-width:25.641;stroke-linecap:butt;stroke-linejoin:miter;stroke-miterlimit:10;stroke-dasharray:none;stroke-opacity:1"
         id="path144" />
      <path
         d="m 8579.55,6396.45 c 0,-81.68 -66.23,-147.95 -147.94,-147.95 H 7149.26 c -81.7,0 -147.93,66.27 -147.93,147.95 v 1874.17 c 0,81.66 66.23,147.95 147.93,147.95 h 887.77 l 542.52,-542.5 V 6396.45"
         style="fill:#edf9fe;fill-opacity:1;fill-rule:nonzero;stroke:none"
         id="path146" />
      <path
         d="m 8086.36,7925.35 493.19,-486.76 v 437.48 l -49.33,49.28 h -443.86"
         style="fill:#d9f0fb;fill-opacity:1;fill-rule:nonzero;stroke:none"
         id="path148" />
      <path
         d="m 8037.03,8418.57 v -394.53 c 0,-81.73 66.28,-147.97 147.98,-147.97 h 394.54 l -542.52,542.5"
         style="fill:#90ca23;fill-opacity:1;fill-rule:nonzero;stroke:none"
         id="path150" />
      <path
         d="m 7251.69,7651.3 h 933.09"
         style="fill:none;stroke:#8fb0e1;stroke-width:39.6279;stroke-linecap:butt;stroke-linejoin:miter;stroke-miterlimit:10;stroke-dasharray:none;stroke-opacity:1"
         id="path152" />
      <path
         d="m 7251.69,7364.19 h 933.09"
         style="fill:none;stroke:#8fb0e1;stroke-width:39.6279;stroke-linecap:butt;stroke-linejoin:miter;stroke-miterlimit:10;stroke-dasharray:none;stroke-opacity:1"
         id="path154" />
      <path
         d="m 7251.69,7077.09 h 570.99"
         style="fill:none;stroke:#8fb0e1;stroke-width:39.6279;stroke-linecap:butt;stroke-linejoin:miter;stroke-miterlimit:10;stroke-dasharray:none;stroke-opacity:1"
         id="path156" />
    </g>
  </g>
</svg>
