<?xml version="1.0" encoding="UTF-8" standalone="no"?>
<!-- Created with Inkscape (http://www.inkscape.org/) -->

<svg
   version="1.1"
   id="svg2"
   width="1328.4399"
   height="1238.7067"
   viewBox="0 0 1328.4399 1238.7067"
   sodipodi:docname="reshot-illustration-team-collaboration-QKUWFNTS7L.eps"
   xmlns:inkscape="http://www.inkscape.org/namespaces/inkscape"
   xmlns:sodipodi="http://sodipodi.sourceforge.net/DTD/sodipodi-0.dtd"
   xmlns="http://www.w3.org/2000/svg"
   xmlns:svg="http://www.w3.org/2000/svg">
  <defs
     id="defs6" />
  <sodipodi:namedview
     id="namedview4"
     pagecolor="#ffffff"
     bordercolor="#000000"
     borderopacity="0.25"
     inkscape:showpageshadow="2"
     inkscape:pageopacity="0.0"
     inkscape:pagecheckerboard="0"
     inkscape:deskcolor="#d1d1d1" />
  <g
     id="g8"
     inkscape:groupmode="layer"
     inkscape:label="ink_ext_XXXXXX"
     transform="matrix(1.3333333,0,0,-1.3333333,0,1238.7067)">
    <g
       id="g10"
       transform="scale(0.1)">
      <path
         d="M 9352.41,65 H 4387.3"
         style="fill:none;stroke:#e1e7f4;stroke-width:130;stroke-linecap:round;stroke-linejoin:miter;stroke-miterlimit:10;stroke-dasharray:none;stroke-opacity:1"
         id="path12" />
      <path
         d="M 2658.38,65 H 64.9961"
         style="fill:none;stroke:#e1e7f4;stroke-width:130;stroke-linecap:round;stroke-linejoin:miter;stroke-miterlimit:10;stroke-dasharray:none;stroke-opacity:1"
         id="path14" />
      <path
         d="m 1363.17,4424.19 h 6247.75 c 35.5,0 64.28,28.78 64.28,64.29 V 8967.77 H 1298.89 V 4488.48 c 0,-35.51 28.78,-64.29 64.28,-64.29"
         style="fill:#f8faff;fill-opacity:1;fill-rule:nonzero;stroke:none"
         id="path16" />
      <path
         d="m 1363.17,4424.19 h 6247.75 c 35.5,0 64.28,28.78 64.28,64.29 V 8967.77 H 1298.89 V 4488.48 c 0,-35.51 28.78,-64.29 64.28,-64.29 z"
         style="fill:none;stroke:#a8b7e2;stroke-width:30;stroke-linecap:butt;stroke-linejoin:miter;stroke-miterlimit:10;stroke-dasharray:none;stroke-opacity:1"
         id="path18" />
      <path
         d="m 1363.17,9202.47 h 6247.75 c 35.5,0 64.28,-28.78 64.28,-64.29 V 8967.77 H 1298.89 v 170.41 c 0,35.51 28.78,64.29 64.28,64.29"
         style="fill:#f8faff;fill-opacity:1;fill-rule:nonzero;stroke:none"
         id="path20" />
      <path
         d="m 1363.17,9202.47 h 6247.75 c 35.5,0 64.28,-28.78 64.28,-64.29 V 8967.77 H 1298.89 v 170.41 c 0,35.51 28.78,64.29 64.28,64.29 z"
         style="fill:none;stroke:#a8b7e2;stroke-width:30;stroke-linecap:butt;stroke-linejoin:miter;stroke-miterlimit:10;stroke-dasharray:none;stroke-opacity:1"
         id="path22" />
      <path
         d="m 1747.1,9085.12 c 0,-32.97 26.73,-59.69 59.69,-59.69 32.97,0 59.7,26.72 59.7,59.69 0,32.97 -26.73,59.7 -59.7,59.7 -32.96,0 -59.69,-26.73 -59.69,-59.7"
         style="fill:#9ef482;fill-opacity:1;fill-rule:nonzero;stroke:none"
         id="path24" />
      <path
         d="m 1555.26,9085.12 c 0,-32.97 26.73,-59.69 59.69,-59.69 32.97,0 59.7,26.72 59.7,59.69 0,32.97 -26.73,59.7 -59.7,59.7 -32.96,0 -59.69,-26.73 -59.69,-59.7"
         style="fill:#ffc95e;fill-opacity:1;fill-rule:nonzero;stroke:none"
         id="path26" />
      <path
         d="m 1363.42,9085.12 c 0,-32.97 26.72,-59.69 59.69,-59.69 32.97,0 59.7,26.72 59.7,59.69 0,32.97 -26.73,59.7 -59.7,59.7 -32.97,0 -59.69,-26.73 -59.69,-59.7"
         style="fill:#d44945;fill-opacity:1;fill-rule:nonzero;stroke:none"
         id="path28" />
      <path
         d="M 8510.11,5240.63 H 3825.77 V 8210.82 H 8510.11 V 5240.63"
         style="fill:#e2ecf9;fill-opacity:1;fill-rule:nonzero;stroke:none"
         id="path30" />
      <path
         d="M 8672.66,5107.63 H 3988.32 v 2970.2 h 4684.34 z"
         style="fill:none;stroke:#a8b7e2;stroke-width:30;stroke-linecap:butt;stroke-linejoin:miter;stroke-miterlimit:10;stroke-dasharray:none;stroke-opacity:1"
         id="path32" />
      <path
         d="M 8510.11,7492.86 C 6151.68,7782.39 4641.54,6922.53 3825.77,6213.26 v -972.63 h 4684.34 v 2252.23"
         style="fill:#c7d8ea;fill-opacity:1;fill-rule:nonzero;stroke:none"
         id="path34" />
      <path
         d="M 2392.39,5022.66 H 4402.08 V 6662.92 H 2392.39 V 5022.66"
         style="fill:#ffc75d;fill-opacity:1;fill-rule:nonzero;stroke:none"
         id="path36" />
      <path
         d="M 2481.05,5126.1 H 4313.42 V 6559.48 H 2481.05 Z"
         style="fill:none;stroke:#ffffff;stroke-width:10;stroke-linecap:butt;stroke-linejoin:miter;stroke-miterlimit:10;stroke-dasharray:none;stroke-opacity:1"
         id="path38" />
      <path
         d="M 2481.05,6559.48 4313.42,5177.91"
         style="fill:none;stroke:#ffffff;stroke-width:10;stroke-linecap:butt;stroke-linejoin:miter;stroke-miterlimit:10;stroke-dasharray:none;stroke-opacity:1"
         id="path40" />
      <path
         d="M 4313.42,6559.48 2481.05,5126.1"
         style="fill:none;stroke:#ffffff;stroke-width:10;stroke-linecap:butt;stroke-linejoin:miter;stroke-miterlimit:10;stroke-dasharray:none;stroke-opacity:1"
         id="path42" />
      <path
         d="m 5262.85,5240.63 h 3247.26 l -294.1,1505.48 c -92.51,473.6 -568.11,768.63 -1033.51,641.12 L 6107.98,7092.84 c -300.97,-82.45 -530.22,-326.82 -593.31,-632.43 L 5262.85,5240.63"
         style="fill:#d44945;fill-opacity:1;fill-rule:nonzero;stroke:none"
         id="path44" />
      <path
         d="m 5262.85,5240.63 -387.9,1030.7 -443.32,-221.66 121.91,-809.04 h 709.31"
         style="fill:#d44945;fill-opacity:1;fill-rule:nonzero;stroke:none"
         id="path46" />
      <path
         d="m 4874.95,6271.33 -100.72,316.53 c -33.79,106.21 -120.67,187.01 -229.05,213.02 l -263.32,63.19 c -72,17.28 -147.76,-4.86 -199.12,-58.2 l -163.11,-169.39 c -20.9,-21.69 -14.76,-57.44 12.19,-70.91 v -0.01 c 101.91,-50.95 224.18,-37.64 312.73,34.05 l 87.33,70.7 -13.79,-51.23 c -40.97,-152.21 -22.5,-314.32 51.68,-453.42 l 61.86,-115.99 443.32,221.66"
         style="fill:#ffa79b;fill-opacity:1;fill-rule:nonzero;stroke:none"
         id="path48" />
      <path
         d="m 6337.99,6871.75 c -16.34,-80.69 8.91,-167.55 66.11,-226.87 58.38,-60.55 147.85,-85.97 229.85,-69.9 89.74,17.58 157.13,86.56 209.67,157.13 55.22,74.16 96.51,158.7 121.85,247.59 14.26,50.09 23.41,101.67 27.19,153.62 1.57,21.42 3.27,43.26 -4.75,63.7 -6.24,15.9 -18.65,29.62 -37.07,27.86 -9.53,-0.91 -9.62,-15.92 0,-15 17.01,1.62 23.69,-16.39 26.56,-30.26 3.74,-18.1 1.08,-37.51 -0.48,-55.72 -3.72,-43.25 -11.37,-86.13 -22.57,-128.07 -22.07,-82.55 -58.05,-161.26 -106.31,-231.8 -46.65,-68.2 -107.09,-139.08 -187.73,-166.53 -74.55,-25.37 -162.05,-11.01 -223.84,38.15 -68.05,54.15 -101.25,147.05 -84.02,232.11 1.9,9.43 -12.55,13.46 -14.46,3.99 v 0"
         style="fill:#000000;fill-opacity:1;fill-rule:nonzero;stroke:none"
         id="path50" />
      <path
         d="m 7027.82,7133.94 c 114.26,45.76 235.1,74.82 357.76,85.33 34.9,2.99 69.9,4.46 104.92,4.53 9.64,0.02 9.66,15.02 0,15 -123.83,-0.27 -247.55,-18.71 -366,-54.87 -34.05,-10.4 -67.62,-22.29 -100.67,-35.53 -8.85,-3.55 -4.99,-18.06 3.99,-14.46 v 0"
         style="fill:#000000;fill-opacity:1;fill-rule:nonzero;stroke:none"
         id="path52" />
      <path
         d="m 7611.06,7344.8 c -147.79,-77.41 -229.76,-238.86 -256.59,-397.96 -17.08,-101.23 -15.52,-204.34 -8.99,-306.45 6.7,-104.73 16.4,-209.31 24.93,-313.91 9.73,-119.45 19.47,-238.9 29.2,-358.35 0.78,-9.56 15.79,-9.64 15,0 -16.99,208.48 -35.09,416.9 -50.84,625.48 -13.94,184.53 -18.52,380.17 71.06,548.16 42.21,79.14 103.73,148.14 183.8,190.09 8.56,4.48 0.98,17.43 -7.57,12.94 v 0"
         style="fill:#000000;fill-opacity:1;fill-rule:nonzero;stroke:none"
         id="path54" />
      <path
         d="m 5821,6925.98 c -61.87,-87.71 -77.42,-199.27 -66.17,-304.03 6.37,-59.31 20.45,-117.44 37.64,-174.47 17.12,-56.86 36.6,-113.08 57.68,-168.59 23.61,-62.15 49.68,-123.37 78.56,-183.27 4.19,-8.69 17.13,-1.09 12.95,7.57 -50.23,104.18 -91.88,212.42 -126.8,322.64 -33.73,106.44 -60.34,219.45 -43.29,331.55 8.77,57.63 28.65,113.22 62.38,161.03 5.58,7.9 -7.42,15.41 -12.95,7.57 v 0"
         style="fill:#000000;fill-opacity:1;fill-rule:nonzero;stroke:none"
         id="path56" />
      <path
         d="m 5941.88,6086.42 c -13.47,-208.8 -33.95,-417.14 -61.49,-624.56 -7.9,-59.47 -16.41,-118.86 -25.46,-178.17 -1.45,-9.44 13.01,-13.51 14.46,-3.98 31.87,208.72 56.73,418.51 74.34,628.91 4.95,59.23 9.32,118.49 13.15,177.8 0.63,9.63 -14.37,9.6 -15,0 v 0"
         style="fill:#000000;fill-opacity:1;fill-rule:nonzero;stroke:none"
         id="path58" />
      <path
         d="m 5852.11,6848.09 c 128.72,52.78 265.79,83.78 404.72,91.15 9.6,0.51 9.66,15.52 0,15 -140.25,-7.45 -278.76,-38.4 -408.71,-91.69 -8.82,-3.61 -4.96,-18.13 3.99,-14.46 v 0"
         style="fill:#000000;fill-opacity:1;fill-rule:nonzero;stroke:none"
         id="path60" />
      <path
         d="m 4551.88,5935.42 c 95.99,54.94 191.97,109.86 287.95,164.79 8.37,4.8 0.82,17.76 -7.58,12.95 -95.97,-54.92 -191.96,-109.85 -287.94,-164.78 -8.37,-4.8 -0.83,-17.76 7.57,-12.96 v 0"
         style="fill:#000000;fill-opacity:1;fill-rule:nonzero;stroke:none"
         id="path62" />
      <path
         d="m 5499.27,7778.59 c 0,0 -199.49,-188.4 -376.81,44.33 -177.33,232.74 99.74,343.57 99.74,343.57 0,0 -144.07,188.41 -33.24,332.49 110.82,144.07 288.16,33.25 288.16,33.25 0,0 55.41,188.41 277.07,232.74 221.65,44.33 299.23,-99.75 299.23,-99.75 0,0 144.08,210.57 343.57,132.99 199.49,-77.57 166.24,-277.07 166.24,-277.07 0,0 177.32,88.66 277.07,-77.57 99.75,-166.25 -44.33,-343.57 -44.33,-343.57 0,0 199.49,-177.33 66.5,-354.66 -133,-177.32 -365.73,-55.41 -365.73,-55.41 l -997.47,88.66"
         style="fill:#000000;fill-opacity:1;fill-rule:nonzero;stroke:none"
         id="path64" />
      <path
         d="m 5360.74,7839.55 350.94,-567.47 c 94.98,-153.59 332.99,-166.15 490.38,-77.62 l 73.02,41.07 121.91,-454.39 c 0,0 99.75,-166.24 254.9,-110.83 155.16,55.41 254.9,465.48 254.9,465.48 l -421.14,698.22 40.96,38.23 c 71.27,66.51 80.95,176.04 22.46,254.02 v 0 c -70.74,94.33 -205.96,110.41 -296.86,35.32 v 0 c -55.71,-46.02 -87.96,-114.51 -87.96,-186.77 v -0.01 c 0,-15.08 -19.74,-20.78 -27.78,-8.01 l -160.63,255.11 c 0,0 22.17,-177.32 -99.75,-188.4 -82.24,-7.48 -159.45,45.58 -200.99,80.89 -7.08,6.03 -17.5,-1.35 -14.23,-10.06 20.32,-54.16 43.79,-150.18 -17.51,-203.83 -88.67,-77.58 -282.62,-60.95 -282.62,-60.95"
         style="fill:#ffa79b;fill-opacity:1;fill-rule:nonzero;stroke:none"
         id="path66" />
      <path
         d="m 5602.4,7767.42 c 19.49,-39.31 32.63,-81.75 43.78,-124.08 10.78,-40.91 19.52,-82.47 25.73,-124.33 2.19,-14.79 4.08,-29.67 4.98,-44.6 1.35,-22.75 1.45,-47.06 16.29,-65.85 24.73,-31.28 66.68,-27.93 100.15,-15.82 35.55,12.87 72.37,27.64 105.02,46.89 8.31,4.9 0.77,17.88 -7.57,12.95 -27.47,-16.2 -58,-28.56 -87.62,-40.15 -30.67,-12.01 -72.44,-26.02 -97.75,4.73 -14.22,17.27 -12.27,41.41 -13.87,62.37 -1.14,14.91 -3.11,29.76 -5.32,44.54 -6.01,40.14 -14.34,79.99 -24.53,119.27 -11.67,44.96 -25.66,89.94 -46.34,131.65 -4.29,8.65 -17.23,1.06 -12.95,-7.57 v 0"
         style="fill:#000000;fill-opacity:1;fill-rule:nonzero;stroke:none"
         id="path68" />
      <path
         d="m 5972.23,7347.47 c 86.38,52.66 167.42,113.77 242.09,182 -4.18,1.1 -8.35,2.2 -12.53,3.31 11.16,-47.75 23.28,-97.88 15.47,-147.14 -5.97,-37.71 -23.95,-76.21 -58.32,-95.61 -8.4,-4.74 -0.85,-17.71 7.58,-12.94 36.81,20.78 57.54,61.25 64.73,101.75 9.39,52.9 -2.98,106.52 -14.99,157.92 -1.35,5.75 -8.56,6.95 -12.54,3.31 -73.76,-67.39 -153.74,-127.63 -239.05,-179.65 -8.24,-5.02 -0.71,-18 7.56,-12.95 v 0"
         style="fill:#000000;fill-opacity:1;fill-rule:nonzero;stroke:none"
         id="path70" />
      <path
         d="m 6486.96,8089.04 c -38.11,54.31 -119.14,66.51 -171.52,25.72 -54.07,-42.09 -66.15,-121.62 -28.7,-178.41 21.17,-32.11 54.55,-55.41 92.03,-64.01 6.6,-1.51 11.39,5.13 8.47,11.02 -12.49,25.14 -27.24,57.27 -16.7,85.63 7.75,20.85 30.69,38.26 53.05,29.14 8.93,-3.64 12.82,10.87 3.99,14.47 -27.48,11.2 -57.05,-8.27 -68.81,-33.12 -16.08,-33.97 0.12,-72.7 15.51,-103.69 2.84,3.67 5.66,7.34 8.48,11.01 -58.38,13.4 -106.15,66.61 -103.13,128.14 2.93,59.82 51.25,111.63 112.63,109.19 31.82,-1.27 63.27,-16.33 81.75,-42.66 5.51,-7.84 18.52,-0.35 12.95,7.57 v 0"
         style="fill:#000000;fill-opacity:1;fill-rule:nonzero;stroke:none"
         id="path72" />
      <path
         d="m 6284.17,7244.59 c 98.53,54.68 166.59,156.25 180.84,267.84 1.21,9.55 -13.8,9.46 -15,0 -13.57,-106.26 -79.91,-203 -173.41,-254.88 -8.45,-4.69 -0.89,-17.65 7.57,-12.96 v 0"
         style="fill:#000000;fill-opacity:1;fill-rule:nonzero;stroke:none"
         id="path74" />
      <path
         d="m 5985.75,7839.92 c 55.57,-113.9 32.72,-243.67 -51.01,-289.86 -83.73,-46.18 -196.66,8.71 -252.22,122.61 -55.57,113.9 -32.73,243.68 51,289.86 83.73,46.19 196.66,-8.71 252.23,-122.61 z"
         style="fill:none;stroke:#000000;stroke-width:30;stroke-linecap:butt;stroke-linejoin:miter;stroke-miterlimit:10;stroke-dasharray:none;stroke-opacity:1"
         id="path76" />
      <path
         d="m 5604.1,7629.42 c 55.57,-113.9 61.28,-227.93 12.76,-254.69 -48.51,-26.76 -132.89,43.88 -188.45,157.78 -55.57,113.9 -61.28,227.93 -12.77,254.69 48.52,26.76 132.89,-43.88 188.46,-157.78 z"
         style="fill:none;stroke:#000000;stroke-width:30;stroke-linecap:butt;stroke-linejoin:miter;stroke-miterlimit:10;stroke-dasharray:none;stroke-opacity:1"
         id="path78" />
      <path
         d="m 5920.13,7933.5 218.26,111.08"
         style="fill:none;stroke:#000000;stroke-width:30;stroke-linecap:butt;stroke-linejoin:miter;stroke-miterlimit:10;stroke-dasharray:none;stroke-opacity:1"
         id="path80" />
      <path
         d="m 8396.09,7830.31 h 772.69 c 19.72,0 35.86,16.14 35.86,35.86 v 31.73 c 0,19.72 -16.14,35.86 -35.86,35.86 h -772.69 c -19.73,0 -35.86,-16.14 -35.86,-35.86 v -31.73 c 0,-19.72 16.13,-35.86 35.86,-35.86"
         style="fill:#687ccd;fill-opacity:1;fill-rule:nonzero;stroke:none"
         id="path82" />
      <path
         d="m 8074.19,7638.21 h 1078.73 c 28.44,0 51.72,23.27 51.72,51.72 v 0 c 0,28.44 -23.28,51.72 -51.72,51.72 H 8074.19 c -28.45,0 -51.72,-23.28 -51.72,-51.72 v 0 c 0,-28.45 23.27,-51.72 51.72,-51.72"
         style="fill:#687ccd;fill-opacity:1;fill-rule:nonzero;stroke:none"
         id="path84" />
      <path
         d="m 8074.19,7446.11 h 1078.73 c 28.44,0 51.72,23.27 51.72,51.72 v 0 c 0,28.44 -23.28,51.72 -51.72,51.72 H 8074.19 c -28.45,0 -51.72,-23.28 -51.72,-51.72 v 0 c 0,-28.45 23.27,-51.72 51.72,-51.72"
         style="fill:#687ccd;fill-opacity:1;fill-rule:nonzero;stroke:none"
         id="path86" />
      <path
         d="m 1088.31,5728.32 c 0,0 254.91,77.58 177.33,288.15 -77.58,210.58 -476.562,99.75 -587.39,22.17 -152.195,-106.54 -99.746,-243.83 -99.746,-243.83 0,0 -136.691,-88.66 -92.356,-177.32 44.329,-88.66 192.102,-144.08 192.102,-144.08 l 280.766,11.09 129.294,243.82"
         style="fill:#000000;fill-opacity:1;fill-rule:nonzero;stroke:none"
         id="path88" />
      <path
         d="m 1074.46,5163.1 v 216.59 c 85.13,0 146.96,80.93 124.57,163.06 l -77.46,370.28 c 0,0 -234.3,3.8 -265.996,-132.99 -31.687,-136.79 39.313,-263.56 39.313,-263.56 l -169.016,170.99 -71.512,-56.59 c -49.562,-39.22 -61.886,-109.35 -28.668,-163.12 v 0 c 28.262,-45.76 82.704,-68.2 135,-55.66 l 7.438,1.79 L 747,5163.1 c 0,0 108.574,-84.97 197.234,-84.97 88.666,0 130.226,84.97 130.226,84.97"
         style="fill:#ffa79b;fill-opacity:1;fill-rule:nonzero;stroke:none"
         id="path90" />
      <path
         d="m 1064.51,5781.44 c -10.28,-35.41 21.27,-75.09 58.32,-72.08 -2.42,3.16 -4.83,6.33 -7.24,9.49 -4.58,-24.29 -17.61,-46.52 -37.44,-61.52 -7.6,-5.75 -0.13,-18.78 7.58,-12.95 22.91,17.34 38.98,42.11 44.33,70.48 0.82,4.39 -2.01,9.93 -7.23,9.5 -27.35,-2.22 -51.59,26.47 -43.85,53.09 2.7,9.29 -11.77,13.25 -14.47,3.99 v 0"
         style="fill:#000000;fill-opacity:1;fill-rule:nonzero;stroke:none"
         id="path92" />
      <path
         d="m 1111.78,5515.37 c -43.93,-11.64 -93.9,4.98 -121.401,41.43 -5.742,7.61 -18.77,0.14 -12.949,-7.57 31.64,-41.93 87.35,-61.83 138.33,-48.33 9.33,2.47 5.38,16.95 -3.98,14.47 v 0"
         style="fill:#000000;fill-opacity:1;fill-rule:nonzero;stroke:none"
         id="path94" />
      <path
         d="m 650.145,5519.29 c 5.457,33.76 18.296,89.22 63.992,82.59 50.965,-7.38 62.355,-66.66 69.101,-108.32 4.825,1.33 9.645,2.66 14.465,3.99 -5.519,25.21 -31.051,43.97 -56.875,40.57 -25.851,-3.4 -45.637,-28.05 -44.504,-53.86 0.422,-9.61 15.422,-9.67 15,0 -0.804,18.39 12.703,36.65 31.504,39.08 18.82,2.42 36.477,-11.79 40.41,-29.78 2.098,-9.57 15.981,-5.36 14.465,3.99 -6.578,40.6 -15.762,86.06 -53.828,109.02 -15.812,9.54 -35.605,13.96 -53.547,8.15 -16.418,-5.32 -28.937,-17.65 -37.117,-32.58 -9.91,-18.08 -14.27,-38.69 -17.531,-58.86 -1.528,-9.44 12.922,-13.5 14.465,-3.99 v 0"
         style="fill:#000000;fill-opacity:1;fill-rule:nonzero;stroke:none"
         id="path96" />
      <path
         d="m 1067.54,5397.59 c -36.78,-5.93 -73.56,-11.87 -110.341,-17.8 -9.508,-1.53 -5.472,-15.99 3.989,-14.47 36.781,5.94 73.562,11.87 110.342,17.81 9.5,1.53 5.47,15.99 -3.99,14.46 v 0"
         style="fill:#000000;fill-opacity:1;fill-rule:nonzero;stroke:none"
         id="path98" />
      <path
         d="m 1098.08,65 h -611.9 l 31.722,204.121 c 41.145,-8.16 74.133,-18.16 86.426,-30.461 44.367,-44.359 88.731,29.531 203.203,59.07 L 1114.98,132.121 C 1147.74,114.531 1135.21,65 1098.08,65"
         style="fill:#000000;fill-opacity:1;fill-rule:nonzero;stroke:none"
         id="path100" />
      <path
         d="m 2037.77,711.492 h -368.01 l -75.28,842.348 -428.59,1152.55 108.39,-963.37 c 16.2,-143.56 -3.56,-289.05 -57.24,-423.19 L 973.266,711.492 H 586.746 L 718.918,1561.19 478.824,2694.43 c -24.597,115.75 -32.64,234.47 -24.133,352.5 l 16.664,232.05 H 1738.49 l 350.2,-1459.3 c 32.29,-134.36 41.03,-273.31 25.98,-410.77 l -76.9,-697.418"
         style="fill:#d44945;fill-opacity:1;fill-rule:nonzero;stroke:none"
         id="path102" />
      <path
         d="m 2329.7,65 h -602.24 l -19.43,217.109 c 39.54,-7.929 67.24,-17.468 78.5,-28.738 73.91,-73.902 59.07,29.539 206.89,55.399 L 2345.68,132.699 C 2379.47,115.801 2367.4,65 2329.7,65"
         style="fill:#000000;fill-opacity:1;fill-rule:nonzero;stroke:none"
         id="path104" />
      <path
         d="M 973.266,711.492 807.531,297.73 C 693.059,268.191 648.695,194.301 604.328,238.66 c -12.293,12.301 -45.281,22.301 -86.426,30.461 l 68.844,442.371 h 386.52"
         style="fill:#ffa79b;fill-opacity:1;fill-rule:nonzero;stroke:none"
         id="path106" />
      <path
         d="M 2037.77,711.492 1993.42,308.77 c -147.82,-25.86 -132.98,-129.301 -206.89,-55.399 -11.26,11.27 -38.96,20.809 -78.5,28.738 l -38.27,429.383 h 368.01"
         style="fill:#ffa79b;fill-opacity:1;fill-rule:nonzero;stroke:none"
         id="path108" />
      <path
         d="M 1287.9,3278.98 H 471.355 l -7.003,-97.46 c 252.961,29.01 646.228,76.14 823.548,97.46"
         style="fill:#000000;fill-opacity:1;fill-rule:nonzero;stroke:none"
         id="path110" />
      <path
         d="m 694.473,3239.32 c -27.692,-152.85 -26.364,-308.77 -9.043,-462.74 17.664,-157.02 50.625,-311.77 83.656,-466.12 33.422,-156.16 67.391,-312.62 86.152,-471.38 19.383,-164.06 18.692,-329.12 1.543,-493.36 -17.629,-168.81 -51.183,-335.6 -91.593,-500.318 -4.907,-19.992 -9.922,-39.961 -15.012,-59.91 -2.395,-9.363 12.066,-13.351 14.461,-3.992 41.328,161.891 76.843,325.44 98.543,491.21 21.675,165.6 28.797,333.18 13.98,499.72 -14.004,157.38 -44.863,312.65 -77.601,467.02 -32.864,154.96 -67.973,309.69 -90.168,466.65 -21.965,155.38 -30.594,313.79 -9.856,469.81 2.641,19.88 5.828,39.69 9.403,59.41 1.71,9.45 -12.743,13.49 -14.465,4 v 0"
         style="fill:#000000;fill-opacity:1;fill-rule:nonzero;stroke:none"
         id="path112" />
      <path
         d="m 769.387,3225.15 c -16.746,-86.03 -50.078,-167.94 -98.203,-241.19 -5.313,-8.1 7.671,-15.62 12.953,-7.58 48.758,74.23 82.746,157.61 99.718,244.78 1.836,9.44 -12.621,13.47 -14.468,3.99 v 0"
         style="fill:#000000;fill-opacity:1;fill-rule:nonzero;stroke:none"
         id="path114" />
      <path
         d="m 1302.31,3224.25 c 8.28,-129.89 16.89,-267.14 -37.27,-389.18 -13.97,-31.48 -31.87,-61.13 -54.12,-87.45 -6.2,-7.33 4.36,-17.99 10.61,-10.61 85.42,101.03 104.05,236.91 101.71,364.87 -0.74,40.84 -3.33,81.62 -5.93,122.37 -0.61,9.59 -15.62,9.66 -15,0 v 0"
         style="fill:#000000;fill-opacity:1;fill-rule:nonzero;stroke:none"
         id="path116" />
      <path
         d="m 1213.01,3262.15 c -9.71,-67.51 6.68,-137 46.7,-192.4 5.61,-7.76 18.62,-0.28 12.96,7.56 -37.51,51.92 -54.33,117.3 -45.2,180.84 1.36,9.45 -13.09,13.53 -14.46,4 v 0"
         style="fill:#000000;fill-opacity:1;fill-rule:nonzero;stroke:none"
         id="path118" />
      <path
         d="m 1294.87,2777.32 c 32.69,-129.44 72.33,-257.09 118.87,-382.22 46.33,-124.56 99.36,-246.66 158.86,-365.5 29.55,-59.03 61.36,-116.77 93.01,-174.68 30.8,-56.37 60.36,-114.31 75.83,-177.03 16.84,-68.26 11.02,-137.98 5.59,-207.28 -5.61,-71.57 -9.2,-143.28 -11.31,-215.02 -4.22,-143.64 -2.66,-287.36 -0.44,-431 0.27,-17.961 0.56,-35.918 0.85,-53.879 0.16,-9.641 15.16,-9.66 15,0 -2.3,144.328 -4.61,288.689 -1.69,433.029 1.45,71.79 4.19,143.56 8.87,215.21 4.61,70.63 14.89,142.33 6.6,213.06 -7.45,63.51 -31.14,123.18 -59.67,179.95 -29.29,58.28 -62.57,114.51 -92.71,172.37 -61.96,118.91 -117.38,241.23 -165.88,366.23 -48.53,125.03 -90.21,252.71 -124.75,382.29 -4.3,16.13 -8.48,32.29 -12.57,48.47 -2.35,9.34 -16.83,5.39 -14.46,-4 v 0"
         style="fill:#000000;fill-opacity:1;fill-rule:nonzero;stroke:none"
         id="path120" />
      <path
         d="m 2322.93,5942.55 -83.79,-689.94 C 2219.6,5091.47 2117.65,4952.06 1969.97,4884.6 l -700.64,-319.98 -51.71,550.45 672.35,192.14 171.71,635.34 h 261.25"
         style="fill:#f2b655;fill-opacity:1;fill-rule:nonzero;stroke:none"
         id="path122" />
      <path
         d="M 1102.2,5163.1 H 816.918 c -163.34,0 -300.82,-122.26 -319.906,-284.48 L 308.82,3279.01 H 1738.5 L 1458.83,4863.9 c -30.55,173.04 -180.91,299.2 -356.63,299.2"
         style="fill:#ffc75d;fill-opacity:1;fill-rule:nonzero;stroke:none"
         id="path124" />
      <path
         d="m 696.723,3766.66 19.636,-35.35 c 22.696,-40.85 62.188,-69.68 108.016,-78.84 l 94.004,-18.81 -12.082,-33.21 c -20.324,-55.89 -13.375,-118.06 18.785,-168.08 23.402,-36.4 76.108,-37.83 101.458,-2.75 l 8.05,11.16 c 53.43,73.97 76.07,165.78 63.16,256.11 l -13.13,91.94 -243.819,177.32 -365.735,343.57 421.149,831.21 H 699.426 C 591.609,5098.66 511.266,4999.8 497.012,4878.62 L 386.02,3935.18 696.723,3766.66"
         style="fill:#000000;fill-opacity:1;fill-rule:nonzero;stroke:none"
         id="path126" />
      <path
         d="M 331.883,4901.8 183.117,4394.9 c -43.043,-146.67 22.184,-303.47 156.543,-376.35 l 423.563,-229.72 144.074,199.49 -365.738,343.56 421.148,831.22 h -281.82 c -161.43,0 -303.543,-106.41 -349.004,-261.3"
         style="fill:#ffc75d;fill-opacity:1;fill-rule:nonzero;stroke:none"
         id="path128" />
      <path
         d="m 907.297,3988.32 243.823,-177.33 13.13,-91.93 c 12.91,-90.33 -9.74,-182.15 -63.16,-256.11 l -8.06,-11.16 c -25.34,-35.09 -78.05,-33.66 -101.456,2.74 v 0 c -32.152,50.03 -39.101,112.2 -18.777,168.08 l 12.078,33.22 -94.008,18.8 c -45.824,9.17 -85.312,38 -108.008,78.85 l -19.636,35.35 144.074,199.49"
         style="fill:#ffa79b;fill-opacity:1;fill-rule:nonzero;stroke:none"
         id="path130" />
      <path
         d="m 2687.61,6118.98 c -25.63,37.92 -74.25,52.52 -116.66,35.28 l -35.75,-14.6 -142.81,91.08 v 206.88 h -84.98 c -47.01,0 -89.31,-28.27 -107.46,-71.6 l -51.38,-142.67 c -24.14,-49.65 -44.25,-122.88 -58.61,-176.21 l -28.28,-104.59 h 261.25 l 10.34,85.06 349.63,11.95 c 24.71,2.99 37.58,31.03 23.55,51.72 l -18.84,27.7"
         style="fill:#ffa79b;fill-opacity:1;fill-rule:nonzero;stroke:none"
         id="path132" />
      <path
         d="m 802.836,4866.26 c -47.477,-131.52 -105.469,-259.15 -173.414,-381.37 -16.777,-30.19 -34.16,-60.04 -52.129,-89.53 -8.844,-14.52 -18.527,-28.65 -26.918,-43.42 -7.227,-12.73 -9.395,-26.26 -0.672,-38.83 9.332,-13.45 23.117,-24.56 34.633,-36.09 13.215,-13.24 26.434,-26.48 39.652,-39.72 26.879,-26.91 53.754,-53.83 80.629,-80.75 59.926,-60.02 119.848,-120.03 179.77,-180.05 6.828,-6.83 17.437,3.77 10.605,10.61 -103.984,104.15 -207.965,208.29 -311.945,312.43 -10.633,10.65 -29.586,23.18 -22.102,40.19 6.5,14.77 17.27,28.41 25.7,42.16 17.742,28.96 34.921,58.26 51.523,87.89 33.195,59.25 64.082,119.81 92.559,181.48 31.882,69.04 60.75,139.48 86.57,211.02 3.289,9.09 -11.203,13.01 -14.461,3.98 v 0"
         style="fill:#000000;fill-opacity:1;fill-rule:nonzero;stroke:none"
         id="path134" />
      <path
         d="m 632.688,5119.15 c 83.996,-17.02 149.386,-95.55 150.16,-181.41 0.09,-9.64 15.09,-9.66 15,0 -0.828,92.14 -70.711,177.54 -161.168,195.88 -9.426,1.91 -13.457,-12.55 -3.992,-14.47 v 0"
         style="fill:#000000;fill-opacity:1;fill-rule:nonzero;stroke:none"
         id="path136" />
      <path
         d="m 753.313,5106.47 c 85.082,-64.5 202.3,-101.53 301.347,-45.03 24.45,13.95 45.36,33.14 61.02,56.54 5.38,8.05 -7.61,15.56 -12.95,7.57 -33.86,-50.63 -95.19,-76.82 -154.906,-77.34 -68.636,-0.59 -133.281,30.53 -186.941,71.21 -7.692,5.83 -15.172,-7.18 -7.57,-12.95 v 0"
         style="fill:#000000;fill-opacity:1;fill-rule:nonzero;stroke:none"
         id="path138" />
      <path
         d="m 1919.55,5284.68 c 28.61,2.44 56.41,-13.87 68.34,-39.98 1.69,-3.68 7.02,-4.58 10.26,-2.69 3.78,2.22 4.38,6.57 2.69,10.27 -13.91,30.43 -47.98,50.24 -81.29,47.4 -4.04,-0.34 -7.5,-3.2 -7.5,-7.5 0,-3.79 3.44,-7.85 7.5,-7.5 v 0"
         style="fill:#000000;fill-opacity:1;fill-rule:nonzero;stroke:none"
         id="path140" />
      <path
         d="m 1951.18,5314.17 c 21.06,3.82 42.75,1.59 62.8,-5.77 3.8,-1.4 8.22,1.56 9.23,5.24 1.14,4.18 -1.43,7.82 -5.24,9.22 -22.64,8.31 -47.09,10.06 -70.78,5.77 -3.99,-0.71 -6.24,-5.57 -5.24,-9.22 1.15,-4.2 5.23,-5.96 9.23,-5.24 v 0"
         style="fill:#000000;fill-opacity:1;fill-rule:nonzero;stroke:none"
         id="path142" />
      <path
         d="m 513.563,4346.88 c -31.993,-12.38 -63.985,-24.76 -95.977,-37.14 -3.773,-1.46 -6.387,-5.04 -5.238,-9.22 0.992,-3.61 5.429,-6.71 9.226,-5.24 31.992,12.38 63.985,24.75 95.977,37.13 3.773,1.47 6.387,5.05 5.242,9.23 -0.992,3.61 -5.434,6.71 -9.23,5.24 v 0"
         style="fill:#000000;fill-opacity:1;fill-rule:nonzero;stroke:none"
         id="path144" />
      <path
         d="m 510.316,4300.34 c -19.285,-15.85 -33.058,-38.24 -38.73,-62.53 -0.926,-3.94 1.223,-8.12 5.238,-9.22 3.793,-1.05 8.301,1.27 9.223,5.23 5.148,22.04 17.344,41.5 34.879,55.92 3.129,2.57 2.668,7.94 0,10.6 -3.102,3.1 -7.473,2.58 -10.61,0 v 0"
         style="fill:#000000;fill-opacity:1;fill-rule:nonzero;stroke:none"
         id="path146" />
      <path
         d="m 530.367,3873.8 c 0,-146.01 0,-292 0,-438 0,-41.18 0,-82.36 0,-123.53 0,-9.66 15,-9.67 15,0 0,145.99 0,291.99 0,437.98 0,41.19 0,82.37 0,123.55 0,9.65 -15,9.66 -15,0 v 0"
         style="fill:#000000;fill-opacity:1;fill-rule:nonzero;stroke:none"
         id="path148" />
      <path
         d="m 338.379,3341.71 c 177.879,0 355.758,0 533.644,0 177.887,0 355.767,0 533.647,0 99.86,0 199.73,0 299.59,0 9.65,0 9.67,15 0,15 -177.88,0 -355.77,0 -533.65,0 -177.876,0 -355.762,0 -533.641,0 -99.867,0 -199.731,0 -299.59,0 -9.656,0 -9.668,-15 0,-15 v 0"
         style="fill:#000000;fill-opacity:1;fill-rule:nonzero;stroke:none"
         id="path150" />
      <path
         d="m 826.008,4006.82 c -50.703,-50.36 -98.828,-103.27 -144.18,-158.5 -6.078,-7.4 4.473,-18.08 10.606,-10.6 45.359,55.23 93.476,108.12 144.183,158.49 6.856,6.81 -3.75,17.42 -10.609,10.61 v 0"
         style="fill:#000000;fill-opacity:1;fill-rule:nonzero;stroke:none"
         id="path152" />
      <path
         d="m 2037.74,5816.87 c 88.66,0 177.33,0 265.99,0 9.66,0 9.67,15 0,15 -88.66,0 -177.33,0 -265.99,0 -9.65,0 -9.67,-15 0,-15 v 0"
         style="fill:#000000;fill-opacity:1;fill-rule:nonzero;stroke:none"
         id="path154" />
      <path
         d="m 1031.07,3649.75 c 11.71,-59.47 13,-120.71 3.64,-180.6 -1.47,-9.44 12.98,-13.51 14.47,-3.98 9.79,62.71 8.62,126.28 -3.65,188.56 -1.86,9.46 -16.32,5.46 -14.46,-3.98 v 0"
         style="fill:#000000;fill-opacity:1;fill-rule:nonzero;stroke:none"
         id="path156" />
      <path
         d="m 1079.51,3689.27 c 4.68,-59.13 9.36,-118.25 14.04,-177.39 0.75,-9.56 15.76,-9.63 15,0 -4.68,59.14 -9.36,118.26 -14.04,177.39 -0.75,9.56 -15.76,9.64 -15,0 v 0"
         style="fill:#000000;fill-opacity:1;fill-rule:nonzero;stroke:none"
         id="path158" />
      <path
         d="m 2331.61,6350.55 c -27,-60.63 9.08,-138.9 73.64,-156.3 9.34,-2.51 13.32,11.96 4,14.47 -54.45,14.66 -87.83,82.3 -64.69,134.25 3.89,8.75 -9.03,16.39 -12.95,7.58 v 0"
         style="fill:#000000;fill-opacity:1;fill-rule:nonzero;stroke:none"
         id="path160" />
      <path
         d="m 2331.21,6031.47 c -21.19,-4.32 -43.34,0.83 -60.93,13.24 -3.31,2.34 -8.34,0.59 -10.26,-2.69 -2.19,-3.75 -0.63,-7.92 2.69,-10.26 20.91,-14.76 47.51,-19.85 72.49,-14.76 3.97,0.81 6.26,5.51 5.24,9.23 -1.14,4.13 -5.25,6.05 -9.23,5.24 v 0"
         style="fill:#000000;fill-opacity:1;fill-rule:nonzero;stroke:none"
         id="path162" />
      <path
         d="M 9500.17,3884.82 H 6234.44 V 6263.94 H 9500.17 V 3884.82"
         style="fill:#e2ecf9;fill-opacity:1;fill-rule:nonzero;stroke:none"
         id="path164" />
      <path
         d="m 6928.96,5510.31 h -458.08 v 458.09 h 458.08 v -458.09"
         style="fill:#a8b7e2;fill-opacity:1;fill-rule:nonzero;stroke:none"
         id="path166" />
      <path
         d="M 8931.26,5776.29 H 7172.78 c -28.44,0 -51.72,23.28 -51.72,51.73 v 0 c 0,28.44 23.28,51.72 51.72,51.72 h 1758.48 c 28.44,0 51.72,-23.28 51.72,-51.72 v 0 c 0,-28.45 -23.28,-51.73 -51.72,-51.73"
         style="fill:#a8b7e2;fill-opacity:1;fill-rule:nonzero;stroke:none"
         id="path168" />
      <path
         d="M 8248.02,5584.19 H 7172.78 c -28.44,0 -51.72,23.28 -51.72,51.72 v 0 c 0,28.45 23.28,51.72 51.72,51.72 h 1075.24 c 28.45,0 51.72,-23.27 51.72,-51.72 v 0 c 0,-28.44 -23.27,-51.72 -51.72,-51.72"
         style="fill:#a8b7e2;fill-opacity:1;fill-rule:nonzero;stroke:none"
         id="path170" />
      <path
         d="M 8947.13,5140.88 H 7156.92 c -19.72,0 -35.86,16.14 -35.86,35.86 v 31.72 c 0,19.72 16.14,35.86 35.86,35.86 h 1790.21 c 19.71,0 35.85,-16.14 35.85,-35.86 v -31.72 c 0,-19.72 -16.14,-35.86 -35.85,-35.86"
         style="fill:#a8b7e2;fill-opacity:1;fill-rule:nonzero;stroke:none"
         id="path172" />
      <path
         d="m 8607.88,4948.78 h -1435.1 c -28.44,0 -51.72,23.27 -51.72,51.72 v 0 c 0,28.45 23.28,51.72 51.72,51.72 h 1435.1 c 28.45,0 51.72,-23.27 51.72,-51.72 v 0 c 0,-28.45 -23.27,-51.72 -51.72,-51.72"
         style="fill:#a8b7e2;fill-opacity:1;fill-rule:nonzero;stroke:none"
         id="path174" />
      <path
         d="M 8931.26,4522.16 H 7172.78 c -28.44,0 -51.72,23.27 -51.72,51.72 v 0 c 0,28.44 23.28,51.72 51.72,51.72 h 1758.48 c 28.44,0 51.72,-23.28 51.72,-51.72 v 0 c 0,-28.45 -23.28,-51.72 -51.72,-51.72"
         style="fill:#a8b7e2;fill-opacity:1;fill-rule:nonzero;stroke:none"
         id="path176" />
      <path
         d="m 7807.59,4330.05 h -650.67 c -19.72,0 -35.86,16.14 -35.86,35.86 v 31.73 c 0,19.72 16.14,35.86 35.86,35.86 h 650.67 c 19.71,0 35.85,-16.14 35.85,-35.86 v -31.73 c 0,-19.72 -16.14,-35.86 -35.85,-35.86"
         style="fill:#a8b7e2;fill-opacity:1;fill-rule:nonzero;stroke:none"
         id="path178" />
      <path
         d="m 6534.95,5803.3 113.25,-86.11 c 0,0 47.07,82.2 137.07,154.2 85.71,68.58 156.15,114.59 214.29,142.94 8.5,4.15 16.3,-6.79 9.65,-13.54 -56.82,-57.69 -146.83,-129.38 -215.37,-232.2 -57.43,-86.13 -111.37,-188.47 -111.37,-188.47 l -165.23,199.64 c -10.15,12.27 3.1,29.89 17.71,23.54"
         style="fill:#d44945;fill-opacity:1;fill-rule:nonzero;stroke:none"
         id="path180" />
      <path
         d="m 6928.96,4860.12 h -458.08 v 458.08 h 458.08 v -458.08"
         style="fill:#a8b7e2;fill-opacity:1;fill-rule:nonzero;stroke:none"
         id="path182" />
      <path
         d="m 6534.95,5182.66 113.25,-86.11 c 0,0 47.07,82.21 137.07,154.2 85.71,68.58 156.15,114.59 214.29,142.94 8.5,4.15 16.3,-6.79 9.65,-13.54 -56.82,-57.69 -146.83,-129.38 -215.37,-232.2 -57.43,-86.13 -111.37,-188.47 -111.37,-188.47 l -165.23,199.64 c -10.15,12.27 3.1,29.89 17.71,23.54"
         style="fill:#d44945;fill-opacity:1;fill-rule:nonzero;stroke:none"
         id="path184" />
      <path
         d="M 5094.35,3692.72 V 5008.31 L 4789.53,4687.44 H 2768.02 v -994.72 h 2326.33"
         style="fill:#b1c3f2;fill-opacity:1;fill-rule:nonzero;stroke:none"
         id="path186" />
      <path
         d="m 3013.95,3981.51 h 1860.07 c 15.29,0 27.81,-12.52 27.81,-27.81 v -24.6 c 0,-15.29 -12.52,-27.81 -27.81,-27.81 H 3013.95 c -15.29,0 -27.81,12.52 -27.81,27.81 v 24.6 c 0,15.29 12.52,27.81 27.81,27.81"
         style="fill:#f8faff;fill-opacity:1;fill-rule:nonzero;stroke:none"
         id="path188" />
      <path
         d="m 3013.95,4152.64 h 1860.07 c 15.29,0 27.81,-12.51 27.81,-27.81 v -24.6 c 0,-15.29 -12.52,-27.81 -27.81,-27.81 H 3013.95 c -15.29,0 -27.81,12.52 -27.81,27.81 v 24.61 c 0,15.29 12.52,27.8 27.81,27.8"
         style="fill:#f8faff;fill-opacity:1;fill-rule:nonzero;stroke:none"
         id="path190" />
      <path
         d="m 3013.95,4323.78 h 1860.07 c 15.29,0 27.81,-12.52 27.81,-27.81 v -24.6 c 0,-15.3 -12.52,-27.81 -27.81,-27.81 H 3013.95 c -15.29,0 -27.81,12.51 -27.81,27.81 v 24.6 c 0,15.29 12.52,27.81 27.81,27.81"
         style="fill:#f8faff;fill-opacity:1;fill-rule:nonzero;stroke:none"
         id="path192" />
      <path
         d="m 3458.39,4494.91 h 1415.63 c 15.29,0 27.81,-12.51 27.81,-27.81 v -24.6 c 0,-15.29 -12.52,-27.81 -27.81,-27.81 H 3458.39 c -15.3,0 -27.82,12.52 -27.82,27.81 v 24.6 c 0,15.3 12.52,27.81 27.82,27.81"
         style="fill:#f8faff;fill-opacity:1;fill-rule:nonzero;stroke:none"
         id="path194" />
      <path
         d="M 922.074,7940.09 V 6624.5 l 304.826,320.88 h 2021.51 v 994.71 H 922.074"
         style="fill:#b1c3f2;fill-opacity:1;fill-rule:nonzero;stroke:none"
         id="path196" />
      <path
         d="M 3002.48,7651.3 H 1142.41 c -15.3,0 -27.81,12.51 -27.81,27.81 v 24.6 c 0,15.29 12.51,27.81 27.81,27.81 h 1860.07 c 15.29,0 27.8,-12.52 27.8,-27.81 v -24.6 c 0,-15.3 -12.51,-27.81 -27.8,-27.81"
         style="fill:#f8faff;fill-opacity:1;fill-rule:nonzero;stroke:none"
         id="path198" />
      <path
         d="M 3002.48,7480.17 H 1142.41 c -15.3,0 -27.81,12.51 -27.81,27.8 v 24.61 c 0,15.29 12.51,27.81 27.81,27.81 h 1860.07 c 15.29,0 27.8,-12.52 27.8,-27.81 v -24.61 c 0,-15.29 -12.51,-27.8 -27.8,-27.8"
         style="fill:#f8faff;fill-opacity:1;fill-rule:nonzero;stroke:none"
         id="path200" />
      <path
         d="M 3002.48,7309.03 H 1142.41 c -15.3,0 -27.81,12.51 -27.81,27.81 v 24.61 c 0,15.29 12.51,27.8 27.8,27.8 h 1860.08 c 15.29,0 27.8,-12.51 27.8,-27.81 v -24.6 c 0,-15.3 -12.51,-27.81 -27.8,-27.81"
         style="fill:#f8faff;fill-opacity:1;fill-rule:nonzero;stroke:none"
         id="path202" />
      <path
         d="M 2558.04,7137.9 H 1142.41 c -15.3,0 -27.81,12.51 -27.81,27.81 v 24.6 c 0,15.3 12.51,27.81 27.8,27.81 h 1415.64 c 15.3,0 27.82,-12.51 27.82,-27.81 v -24.6 c 0,-15.3 -12.52,-27.81 -27.82,-27.81"
         style="fill:#f8faff;fill-opacity:1;fill-rule:nonzero;stroke:none"
         id="path204" />
      <path
         d="m 2100.02,8569.17 h -498.21 c -28.43,0 -51.71,23.27 -51.71,51.72 v 0 c 0,28.44 23.28,51.72 51.71,51.72 h 498.21 c 28.44,0 51.72,-23.28 51.72,-51.72 v 0 c 0,-28.45 -23.28,-51.72 -51.72,-51.72"
         style="fill:#687ccd;fill-opacity:1;fill-rule:nonzero;stroke:none"
         id="path206" />
      <path
         d="m 2340.67,8377.07 h -738.86 c -28.43,0 -51.71,23.27 -51.71,51.72 v 0 c 0,28.44 23.28,51.71 51.71,51.71 h 738.86 c 28.45,0 51.72,-23.27 51.72,-51.71 v 0 c 0,-28.45 -23.27,-51.72 -51.72,-51.72"
         style="fill:#687ccd;fill-opacity:1;fill-rule:nonzero;stroke:none"
         id="path208" />
      <path
         d="m 2340.67,8184.97 h -738.86 c -28.43,0 -51.71,23.27 -51.71,51.71 v 0 c 0,28.45 23.28,51.72 51.71,51.72 h 738.86 c 28.45,0 51.72,-23.27 51.72,-51.72 v 0 c 0,-28.44 -23.27,-51.71 -51.72,-51.71"
         style="fill:#687ccd;fill-opacity:1;fill-rule:nonzero;stroke:none"
         id="path210" />
      <path
         d="m 8438.02,1805.56 251.93,1782.99 c 14.45,102.25 102.65,177.84 205.91,176.48 v 0 c 123.65,-1.64 217.78,-111.47 200.48,-233.91 L 8851.75,1800.08"
         style="fill:none;stroke:#000000;stroke-width:30;stroke-linecap:butt;stroke-linejoin:miter;stroke-miterlimit:10;stroke-dasharray:none;stroke-opacity:1"
         id="path212" />
      <path
         d="M 8914.91,3770.22 8636.79,1801.91"
         style="fill:none;stroke:#000000;stroke-width:30;stroke-linecap:butt;stroke-linejoin:miter;stroke-miterlimit:10;stroke-dasharray:none;stroke-opacity:1"
         id="path214" />
      <path
         d="M 9000.03,3739.58 8726.24,1801.91"
         style="fill:none;stroke:#000000;stroke-width:30;stroke-linecap:butt;stroke-linejoin:miter;stroke-miterlimit:10;stroke-dasharray:none;stroke-opacity:1"
         id="path216" />
      <path
         d="M 8825.46,3739.58 8551.68,1801.91"
         style="fill:none;stroke:#000000;stroke-width:30;stroke-linecap:butt;stroke-linejoin:miter;stroke-miterlimit:10;stroke-dasharray:none;stroke-opacity:1"
         id="path218" />
      <path
         d="M 8676.13,76.0313 8462.23,1668.26"
         style="fill:none;stroke:#000000;stroke-width:40;stroke-linecap:butt;stroke-linejoin:miter;stroke-miterlimit:10;stroke-dasharray:none;stroke-opacity:1"
         id="path220" />
      <path
         d="M 9061.44,76.0313 8847.56,1668.26"
         style="fill:none;stroke:#000000;stroke-width:40;stroke-linecap:butt;stroke-linejoin:miter;stroke-miterlimit:10;stroke-dasharray:none;stroke-opacity:1"
         id="path222" />
      <path
         d="M 7668.93,76.0313 7882.82,1668.26"
         style="fill:none;stroke:#000000;stroke-width:40;stroke-linecap:butt;stroke-linejoin:miter;stroke-miterlimit:10;stroke-dasharray:none;stroke-opacity:1"
         id="path224" />
      <path
         d="M 7283.61,76.0313 7497.5,1668.26"
         style="fill:none;stroke:#000000;stroke-width:40;stroke-linecap:butt;stroke-linejoin:miter;stroke-miterlimit:10;stroke-dasharray:none;stroke-opacity:1"
         id="path226" />
      <path
         d="m 7512.65,1860.36 h 1359.5 c 69.09,0 125.61,-56.52 125.61,-125.6 v 0 c 0,-69.09 -56.52,-125.61 -125.61,-125.61 h -1359.5 c -69.08,0 -125.6,56.52 -125.6,125.61 v 0 c 0,69.08 56.52,125.6 125.6,125.6"
         style="fill:#9a2929;fill-opacity:1;fill-rule:nonzero;stroke:none"
         id="path228" />
      <path
         d="m 6928.96,4209.92 h -458.08 v 458.09 h 458.08 v -458.09"
         style="fill:#a8b7e2;fill-opacity:1;fill-rule:nonzero;stroke:none"
         id="path230" />
      <path
         d="m 8137.04,3352.88 -108.96,-17.47 -20.34,2.65 -60.12,-15.52 -401.33,-64.25 -28.97,337.91 519.95,199.98 99.77,-443.3"
         style="fill:#d69690;fill-opacity:1;fill-rule:nonzero;stroke:none"
         id="path232" />
      <path
         d="m 7517.32,3596.2 28.97,-337.91 -49.54,-7.93 c -115.51,-18.39 -230.9,34.6 -292.05,134.36 l -408.7,666.38 -44.36,166.2 110.79,166.3 -8.61,1.16 c -39.55,5.63 -68.97,39.53 -68.97,79.53 v 64.36 c 0,9.66 10.24,15.74 18.74,11.38 l 135.39,-70.92 c 47.46,-24.82 74.7,-76.2 68.84,-129.41 l -12.41,-111.26 465.48,-653.97 56.43,21.73"
         style="fill:#ffc75d;fill-opacity:1;fill-rule:nonzero;stroke:none"
         id="path234" />
      <path
         d="m 8028.08,3335.41 -80.46,-12.87 60.12,15.52 z"
         style="fill:#ffc75d;fill-opacity:1;fill-rule:nonzero;stroke:none"
         id="path236" />
      <path
         d="m 7852.59,3809.43 -158.28,-192.19 c -80.38,-97.6 -67.87,-241.59 28.13,-323.87 l 85.32,-73.14 -320.97,-1492.86 h 733.32 c 305.02,0 552.3,247.27 552.3,552.3 v 1318.85 c 0,190.77 -154.65,345.42 -345.42,345.42 H 8137.6 c -110.33,0 -214.87,-49.34 -285.01,-134.51"
         style="fill:#ffa79b;fill-opacity:1;fill-rule:nonzero;stroke:none"
         id="path238" />
      <path
         d="m 8665.27,3611.46 -111.02,-343.63 c 0,0 -125.41,-107.08 -258.4,-180.96 -94.32,-52.41 -381.83,-93.65 -541.1,-113.21 l -42.94,-199.7 c 145.38,9.57 457.11,34.5 687.47,83.86 310.32,66.5 265.99,753.64 265.99,753.64"
         style="fill:#000000;fill-opacity:1;fill-rule:nonzero;stroke:none"
         id="path240" />
      <path
         d="m 8554.25,3267.83 -25.29,-78.49 c -53.9,-167.23 -202.97,-285.73 -378.13,-300.44 l -630.75,-53.22 c 0,0 -188.49,88.62 -277.1,66.44 -39.43,-9.78 -76.66,-21.84 -105.85,-32.19 -22.07,-7.81 -41.84,16.21 -30,36.44 41.37,70.68 123.32,177 235.61,162.06 166.19,-22.19 221.58,-66.55 221.58,-66.55 l 587.44,188.37 16.77,127.12 385.72,-49.54"
         style="fill:#ffc75d;fill-opacity:1;fill-rule:nonzero;stroke:none"
         id="path242" />
      <path
         d="m 8169.11,3360.32 c 6.13,93.69 18.08,186.89 35.81,279.1 1.81,9.43 -12.65,13.47 -14.46,3.99 -17.98,-93.51 -30.13,-188.08 -36.35,-283.09 -0.63,-9.64 14.37,-9.6 15,0 v 0"
         style="fill:#000000;fill-opacity:1;fill-rule:nonzero;stroke:none"
         id="path244" />
      <path
         d="m 8250.71,3696.25 c 36.19,53.91 93.67,91.23 157.39,103.17 9.48,1.78 5.46,16.24 -3.99,14.48 -67.56,-12.68 -128.08,-53.08 -166.35,-110.07 -5.4,-8.04 7.59,-15.56 12.95,-7.58 v 0"
         style="fill:#000000;fill-opacity:1;fill-rule:nonzero;stroke:none"
         id="path246" />
      <path
         d="m 7849.21,3229.63 c 66.88,26.22 144.23,15.56 201.56,-27.72 7.7,-5.82 15.19,7.2 7.58,12.95 -60.11,45.36 -143.04,56.71 -213.13,29.23 -8.88,-3.48 -5.02,-18 3.99,-14.46 v 0"
         style="fill:#000000;fill-opacity:1;fill-rule:nonzero;stroke:none"
         id="path248" />
      <path
         d="m 8484.31,2940.21 c -35.37,-144 -65.39,-289.29 -89.87,-435.53 -6.95,-41.53 -13.45,-83.12 -19.53,-124.78 -1.38,-9.44 13.08,-13.52 14.47,-3.98 21.4,146.72 48.22,292.63 80.55,437.33 9.18,41.1 18.81,82.08 28.85,122.96 2.3,9.38 -12.16,13.38 -14.47,4 v 0"
         style="fill:#000000;fill-opacity:1;fill-rule:nonzero;stroke:none"
         id="path250" />
      <path
         d="m 8229.41,3397.67 c 114.41,-11.66 227.52,-34.28 337.69,-67.26 9.26,-2.77 13.22,11.7 3.98,14.46 -111.47,33.37 -225.92,56 -341.67,67.8 -9.6,0.97 -9.53,-14.04 0,-15 v 0"
         style="fill:#000000;fill-opacity:1;fill-rule:nonzero;stroke:none"
         id="path252" />
      <path
         d="m 7591.6,3611.41 c 2.28,-113.29 4.57,-226.6 6.85,-339.89 0.2,-9.64 15.2,-9.67 15,0 -2.28,113.29 -4.57,226.6 -6.85,339.89 -0.2,9.64 -15.2,9.66 -15,0 v 0"
         style="fill:#000000;fill-opacity:1;fill-rule:nonzero;stroke:none"
         id="path254" />
      <path
         d="m 7456.07,3557.16 c -26.05,-24.03 -37.78,-60.68 -31.6,-95.41 0.71,-4 5.58,-6.24 9.23,-5.25 4.2,1.17 5.95,5.23 5.23,9.23 -5.25,29.52 5.83,60.61 27.75,80.82 7.12,6.57 -3.52,17.15 -10.61,10.61 v 0"
         style="fill:#000000;fill-opacity:1;fill-rule:nonzero;stroke:none"
         id="path256" />
      <path
         d="m 8178.77,3170.98 c 33.76,10.44 71.89,2.11 97.92,-21.94 7.08,-6.54 17.71,4.04 10.6,10.61 -29.85,27.58 -73.59,37.82 -112.51,25.79 -9.2,-2.84 -5.27,-17.32 3.99,-14.46 v 0"
         style="fill:#000000;fill-opacity:1;fill-rule:nonzero;stroke:none"
         id="path258" />
      <path
         d="m 6766.46,264.402 c 22.76,18.969 83.79,28.278 163.9,31.5 L 6866.11,76.0313 h -589.83 c -48.73,0 -59.19,68.4997 -12.77,83.0977 l 336.64,105.273 c 129.3,0 77.58,-73.89 166.31,0"
         style="fill:#d44945;fill-opacity:1;fill-rule:nonzero;stroke:none"
         id="path260" />
      <path
         d="m 8772.39,2436.64 v -157 c 0,-305.03 -247.23,-552.25 -552.26,-552.25 h -1099.1 l 23.79,-476.17 c 6.32,-125.05 -8.39,-250.21 -43.55,-370.31 l -33.33,-114.019 h -444 l 51.16,1080.829 c 8.04,168.15 134.23,306.99 300.88,331.01 l 1796.41,257.91"
         style="fill:#4541fc;fill-opacity:1;fill-rule:nonzero;stroke:none"
         id="path262" />
      <path
         d="m 7815.57,220.16 c 12.06,8.039 51.95,25.403 112.06,49.301 L 7904.3,76.0313 h -589.95 c -48.74,0 -59.2,68.4997 -12.76,83.0977 l 336.64,105.273 c 118.26,0 88.73,-103.429 177.34,-44.242"
         style="fill:#d44945;fill-opacity:1;fill-rule:nonzero;stroke:none"
         id="path264" />
      <path
         d="m 8772.39,2436.64 v -157 c 0,-305.03 -247.23,-552.25 -552.26,-552.25 h -223.54 l 27.24,-498.7 c 4.02,-73.79 1.61,-147.8 -7.24,-221.13 l -28.97,-240.669 h -399.39 l -95.73,960.499 -6.56,65.85 c -18.5,186.65 103.44,358.48 285.84,402.39 l 1000.61,241.01"
         style="fill:#4541fc;fill-opacity:1;fill-rule:nonzero;stroke:none"
         id="path266" />
      <path
         d="M 7067.94,766.891 6930.36,295.902 c -80.11,-3.222 -141.14,-12.531 -163.9,-31.5 -88.73,-73.89 -37.01,0 -166.31,0 l 23.79,502.489 h 444"
         style="fill:#ffc75d;fill-opacity:1;fill-rule:nonzero;stroke:none"
         id="path268" />
      <path
         d="m 7987.62,766.891 -59.99,-497.43 c -60.11,-23.898 -100,-41.262 -112.06,-49.301 -88.61,-59.187 -59.08,44.242 -177.34,44.242 l -50,502.489 h 399.39"
         style="fill:#ffc75d;fill-opacity:1;fill-rule:nonzero;stroke:none"
         id="path270" />
      <path
         d="m 6661.5,2909.54 -242.39,577.12 c -22.35,53.22 -74.45,87.85 -132.19,87.85 h -1057.3 c -42.13,0 -70.66,-42.93 -54.35,-81.77 l 275.98,-657.09 h 709.3 531.98 709.3 v 73.89 H 6661.5"
         style="fill:#000000;fill-opacity:1;fill-rule:nonzero;stroke:none"
         id="path272" />
      <path
         d="m 8000.3,4381.07 c 0,0 -188.41,59.81 -177.32,215.32 11.08,155.5 543.05,358.86 742.54,83.73 199.5,-275.12 243.82,-598.09 166.25,-657.9 -77.58,-59.82 -421.15,-59.82 -421.15,-59.82 v 406.71 l -310.32,11.96"
         style="fill:#d44945;fill-opacity:1;fill-rule:nonzero;stroke:none"
         id="path274" />
      <path
         d="m 7967.05,4531.32 -16.33,-318.49 c -3.04,-59.2 48.32,-106.67 107.1,-99.01 l 141.97,18.52 -44.32,-232.73 c 0,0 -14.79,-66.5 51.72,-66.5 66.49,0 236.42,66.5 236.42,66.5 v 277.06 l 51.2,15.76 c 52.08,16.02 82.53,69.99 69.31,122.85 v 0 c -16.17,64.71 -88.85,96.98 -147.7,65.59 l -50.39,-26.87 -44.32,44.33 c 0,0 -66.51,66.5 -199.5,66.5 -132.99,0 -155.16,66.49 -155.16,66.49"
         style="fill:#ffc75d;fill-opacity:1;fill-rule:nonzero;stroke:none"
         id="path276" />
      <path
         d="m 8028.33,4411.45 c -8.35,-10.37 -16.7,-20.74 -25.05,-31.1 -4.4,-5.46 -8.8,-10.91 -13.18,-16.37 -3.62,-4.49 -7.4,-8.96 -9.2,-14.54 -4.02,-12.46 5.11,-20.87 13.63,-28.28 10.23,-8.9 20.47,-17.8 30.7,-26.7 7.26,-6.31 17.91,4.26 10.61,10.61 -8.4,7.3 -16.8,14.6 -25.19,21.9 -3.98,3.46 -8.13,6.79 -11.93,10.45 -3.77,3.63 -4.74,6.23 -1.82,10.88 5.7,9.06 13.57,17.2 20.28,25.53 7.25,9.01 14.51,18.01 21.75,27.01 2.57,3.17 3.05,7.49 0,10.61 -2.59,2.65 -8.06,3.14 -10.6,0 v 0"
         style="fill:#000000;fill-opacity:1;fill-rule:nonzero;stroke:none"
         id="path278" />
      <path
         d="m 8083.53,4217.47 c 33.77,10.73 65.95,26.15 95.37,45.9 -3.42,0.9 -6.84,1.8 -10.26,2.69 8.51,-18.42 -3.47,-42.8 -22.63,-48.35 -9.24,-2.69 -5.31,-17.16 4,-14.47 29.09,8.43 44.12,43.22 31.58,70.4 -1.62,3.52 -7.14,4.78 -10.26,2.69 -28.38,-19.06 -59.2,-34.04 -91.78,-44.4 -9.17,-2.91 -5.26,-17.39 3.98,-14.46 v 0"
         style="fill:#000000;fill-opacity:1;fill-rule:nonzero;stroke:none"
         id="path280" />
      <path
         d="m 8209.49,4127.43 c 28.91,6.54 56.77,17.42 82.52,32.1 8.39,4.77 0.84,17.74 -7.58,12.95 -24.7,-14.08 -51.21,-24.31 -78.93,-30.59 -9.41,-2.13 -5.43,-16.6 3.99,-14.46 v 0"
         style="fill:#000000;fill-opacity:1;fill-rule:nonzero;stroke:none"
         id="path282" />
      <path
         d="m 8489.06,4351.95 c -30.25,16.04 -69.66,6.54 -91.79,-19 -25,-28.83 -19.85,-70.12 6.53,-96.3 14.77,-14.67 35.23,-23.65 56.22,-21.93 6.07,0.5 8.8,5.9 6.47,11.29 -4.71,10.93 -10.56,23.97 -7.87,36.16 1.9,8.59 10.07,18.01 19.63,15.62 9.36,-2.35 13.36,12.12 3.98,14.47 -15.87,3.97 -30.54,-6.63 -36.4,-21.09 -7.14,-17.57 0.71,-36.5 7.71,-52.74 2.16,3.77 4.32,7.53 6.48,11.29 -30.53,-2.5 -58.62,21.84 -63.83,51.52 -4.93,28.14 16.04,52.76 41.87,60.79 14.37,4.46 29.98,4.09 43.43,-3.04 8.53,-4.52 16.11,8.43 7.57,12.96 v 0"
         style="fill:#000000;fill-opacity:1;fill-rule:nonzero;stroke:none"
         id="path284" />
      <path
         d="m 8772.39,2320.22 v 116.42 l -530.58,-76.17 z"
         style="fill:#000000;fill-opacity:1;fill-rule:nonzero;stroke:none"
         id="path286" />
      <path
         d="m 8565.67,2361.38 c 5.56,-59.08 10.9,-121.15 -6.44,-178.85 -16.18,-53.8 -54.29,-94.04 -105.11,-116.87 -49,-22 -104.08,-28.44 -157.2,-31.1 -68.45,-3.43 -137.29,-2.61 -205.8,-2.22 -82.29,0.47 -164.58,2.36 -246.82,5.59 -4.2,0.17 -7.28,-3.57 -7.5,-7.5 -8.55,-161.47 -17.11,-322.94 -25.66,-484.41 -8.56,-161.48 -17.12,-322.94 -25.67,-484.42 -4.83,-91.018 -9.65,-182.037 -14.48,-273.057 -0.5,-9.652 14.5,-9.621 15,0 8.56,161.469 17.11,322.927 25.68,484.407 8.55,161.47 17.11,322.94 25.66,484.41 4.83,91.03 9.65,182.04 14.47,273.07 -2.5,-2.5 -5,-5 -7.5,-7.5 76.06,-2.99 152.15,-4.82 228.26,-5.46 71.97,-0.59 144.23,-1.3 216.17,1.71 106.24,4.45 230.93,27.75 276.99,137.27 27.06,64.36 21.33,137.1 14.95,204.93 -0.9,9.53 -15.91,9.62 -15,0 v 0"
         style="fill:#000000;fill-opacity:1;fill-rule:nonzero;stroke:none"
         id="path288" />
      <path
         d="m 7494.5,1783.13 c -35.87,89.66 -27.7,193.13 24.18,274.92 23.36,36.81 54.73,68.67 91.33,92.37 41.99,27.19 90.24,40.54 136.31,58.89 54.98,21.89 107.72,48.81 160.35,75.75 8.59,4.39 1,17.34 -7.58,12.95 -50.39,-25.8 -100.87,-51.74 -153.44,-72.91 -46.89,-18.88 -96.39,-32.32 -139.55,-59.4 -77.77,-48.79 -132.45,-131.05 -145.43,-222.12 -7.91,-55.45 -1.45,-112.39 19.37,-164.45 3.53,-8.85 18.05,-4.99 14.46,4 v 0"
         style="fill:#000000;fill-opacity:1;fill-rule:nonzero;stroke:none"
         id="path290" />
      <path
         d="m 7467.79,1974.58 c -112.16,12.54 -225.35,15.2 -337.97,7.67 -28.14,-1.88 -56.25,-4.39 -84.28,-7.53 -13.74,-1.55 -27.46,-3.24 -41.17,-5.07 -12.16,-1.63 -24.8,-2.7 -36.41,-6.93 -44.84,-16.37 -39.48,-70.55 -38.62,-109.05 5.06,-224.05 -6.92,-448.48 -35.68,-670.74 -16.32,-126.17 -38.21,-251.61 -65.32,-375.91 -2.05,-9.399 12.41,-13.43 14.47,-3.981 46.72,214.261 77.71,431.951 92.52,650.761 7.44,109.98 10.79,220.23 10.04,330.46 -0.19,26.79 -0.62,53.58 -1.28,80.38 -0.53,21.01 -2.77,44.85 6.86,64.33 11.49,23.24 39.13,23.83 61.72,26.77 27.97,3.64 56.03,6.64 84.13,9.02 123.47,10.42 247.86,8.59 370.99,-5.18 9.58,-1.06 9.5,13.94 0,15 v 0"
         style="fill:#000000;fill-opacity:1;fill-rule:nonzero;stroke:none"
         id="path292" />
      <path
         d="m 8682.15,2192.4 c 23.47,3.83 47.58,1.7 70.18,-5.58 9.21,-2.98 13.16,11.5 3.99,14.46 -25.28,8.14 -52,9.85 -78.17,5.59 -3.99,-0.66 -6.22,-5.62 -5.23,-9.23 1.17,-4.25 5.21,-5.89 9.23,-5.24 v 0"
         style="fill:#000000;fill-opacity:1;fill-rule:nonzero;stroke:none"
         id="path294" />
      <path
         d="m 8467.74,2337.5 c 26.59,-42.19 53.17,-84.38 79.75,-126.57 5.13,-8.15 18.12,-0.63 12.96,7.57 -26.59,42.19 -53.17,84.38 -79.75,126.57 -5.14,8.14 -18.12,0.62 -12.96,-7.57 v 0"
         style="fill:#000000;fill-opacity:1;fill-rule:nonzero;stroke:none"
         id="path296" />
      <path
         d="m 6662.98,855.41 c 130.52,0 261.06,0 391.59,0 9.65,0 9.67,15 0,15 -130.53,0 -261.07,0 -391.59,0 -9.66,0 -9.67,-15 0,-15 v 0"
         style="fill:#000000;fill-opacity:1;fill-rule:nonzero;stroke:none"
         id="path298" />
      <path
         d="m 7593.93,870.191 c 125.61,0 251.21,0 376.82,0 9.65,0 9.67,15 0,15 -125.61,0 -251.21,0 -376.82,0 -9.66,0 -9.66,-15 0,-15 v 0"
         style="fill:#000000;fill-opacity:1;fill-rule:nonzero;stroke:none"
         id="path300" />
      <path
         d="M 7667.64,76.0313 7212.29,2732.22"
         style="fill:none;stroke:#000000;stroke-width:40;stroke-linecap:butt;stroke-linejoin:miter;stroke-miterlimit:10;stroke-dasharray:none;stroke-opacity:1"
         id="path302" />
      <path
         d="M 8487.95,76.0313 8032.6,2732.22"
         style="fill:none;stroke:#000000;stroke-width:40;stroke-linecap:butt;stroke-linejoin:miter;stroke-miterlimit:10;stroke-dasharray:none;stroke-opacity:1"
         id="path304" />
      <path
         d="M 5523.44,76.0313 5978.79,2732.22"
         style="fill:none;stroke:#000000;stroke-width:40;stroke-linecap:butt;stroke-linejoin:miter;stroke-miterlimit:10;stroke-dasharray:none;stroke-opacity:1"
         id="path306" />
      <path
         d="M 4703.13,76.0313 5158.48,2732.22"
         style="fill:none;stroke:#000000;stroke-width:40;stroke-linecap:butt;stroke-linejoin:miter;stroke-miterlimit:10;stroke-dasharray:none;stroke-opacity:1"
         id="path308" />
      <path
         d="M 4905.48,2717.43 H 8285.6 c 32.51,0 59.11,26.6 59.11,59.11 v 0 c 0,32.51 -26.6,59.11 -59.11,59.11 H 4905.48 c -32.51,0 -59.11,-26.6 -59.11,-59.11 v 0 c 0,-32.51 26.6,-59.11 59.11,-59.11"
         style="fill:#9a2929;fill-opacity:1;fill-rule:nonzero;stroke:none"
         id="path310" />
      <path
         d="m 740.508,9244.08 c 73.855,-37 147.715,-74.01 221.566,-111.01 12.063,-6.04 27.082,-3.21 34.203,8.97 6.493,11.09 3.149,28.14 -8.964,34.21 -73.86,37 -147.715,74 -221.567,111 -12.07,6.05 -27.086,3.21 -34.211,-8.97 -6.484,-11.09 -3.148,-28.13 8.973,-34.2 v 0"
         style="fill:#dce4f7;fill-opacity:1;fill-rule:nonzero;stroke:none"
         id="path312" />
      <path
         d="m 745.301,8862.01 c 59.125,-14.71 118.246,-29.43 177.375,-44.14 13.094,-3.26 27.113,4.22 30.75,17.46 3.519,12.81 -4.309,27.48 -17.461,30.76 -59.121,14.71 -118.246,29.43 -177.371,44.14 -13.094,3.25 -27.117,-4.22 -30.754,-17.46 -3.52,-12.81 4.305,-27.48 17.461,-30.76 v 0"
         style="fill:#dce4f7;fill-opacity:1;fill-rule:nonzero;stroke:none"
         id="path314" />
      <path
         d="m 759.965,8348.16 c 66.129,16.27 132.254,32.54 198.387,48.81 31.23,7.68 18.003,55.91 -13.297,48.21 -66.125,-16.27 -132.254,-32.53 -198.383,-48.8 -31.231,-7.69 -18,-55.92 13.293,-48.22 v 0"
         style="fill:#dce4f7;fill-opacity:1;fill-rule:nonzero;stroke:none"
         id="path316" />
      <path
         d="m 8464.69,9144.6 c -67.63,-87.79 -135.27,-175.57 -202.91,-263.35 -8.25,-10.71 -1.64,-28.01 8.97,-34.21 12.91,-7.55 25.94,-1.76 34.21,8.97 67.64,87.78 135.27,175.57 202.91,263.35 8.25,10.71 1.64,28 -8.97,34.21 -12.9,7.54 -25.93,1.76 -34.21,-8.97 v 0"
         style="fill:#dce4f7;fill-opacity:1;fill-rule:nonzero;stroke:none"
         id="path318" />
      <path
         d="m 8740.59,8931.85 c -37.05,-21.99 -74.1,-43.98 -111.14,-65.97 -11.25,-6.68 -16.32,-22.8 -8.97,-34.2 7.3,-11.32 22.17,-16.11 34.21,-8.97 37.05,21.99 74.09,43.98 111.14,65.96 11.25,6.68 16.32,22.81 8.96,34.21 -7.29,11.32 -22.17,16.11 -34.2,8.97 v 0"
         style="fill:#dce4f7;fill-opacity:1;fill-rule:nonzero;stroke:none"
         id="path320" />
      <path
         d="m 8969.54,8687.79 c -96.1,-36.83 -192.2,-73.66 -288.29,-110.49 -12.6,-4.83 -21.29,-16.82 -17.46,-30.75 3.32,-12.06 18.08,-22.32 30.75,-17.46 96.1,36.82 192.2,73.66 288.29,110.48 12.6,4.83 21.29,16.83 17.46,30.75 -3.31,12.06 -18.08,22.32 -30.75,17.47 v 0"
         style="fill:#dce4f7;fill-opacity:1;fill-rule:nonzero;stroke:none"
         id="path322" />
      <path
         d="m 2386.54,3942.97 c -81.32,-22.02 -162.64,-44.03 -243.94,-66.06 -31.03,-8.39 -17.87,-56.65 13.29,-48.21 81.31,22.01 162.62,44.03 243.94,66.06 31.03,8.39 17.85,56.64 -13.29,48.21 v 0"
         style="fill:#dce4f7;fill-opacity:1;fill-rule:nonzero;stroke:none"
         id="path324" />
      <path
         d="m 2441.66,3695.07 c -66.09,-52.25 -132.16,-104.5 -198.24,-156.75 -10.6,-8.38 -8.76,-26.59 0,-35.35 10.46,-10.47 24.72,-8.41 35.36,0 66.07,52.25 132.15,104.49 198.23,156.74 10.6,8.39 8.77,26.59 0,35.36 -10.47,10.47 -24.73,8.4 -35.35,0 v 0"
         style="fill:#dce4f7;fill-opacity:1;fill-rule:nonzero;stroke:none"
         id="path326" />
      <path
         d="m 2685.04,3473.97 c -44.34,-44.33 -88.67,-88.67 -133,-132.99 -9.26,-9.26 -9.95,-26.22 0,-35.36 9.98,-9.16 25.48,-9.88 35.36,0 44.33,44.33 88.66,88.66 132.99,132.99 9.26,9.26 9.95,26.22 0,35.36 -9.98,9.16 -25.47,9.88 -35.35,0 v 0"
         style="fill:#dce4f7;fill-opacity:1;fill-rule:nonzero;stroke:none"
         id="path328" />
      <path
         d="m 4372.31,3308.31 c 0,-89.66 -72.67,-162.34 -162.33,-162.34 -89.66,0 -162.35,72.68 -162.35,162.34 0,89.66 72.69,162.34 162.35,162.34 89.66,0 162.33,-72.68 162.33,-162.34 z"
         style="fill:none;stroke:#dce4f7;stroke-width:40;stroke-linecap:round;stroke-linejoin:round;stroke-miterlimit:10;stroke-dasharray:none;stroke-opacity:1"
         id="path330" />
      <path
         d="m 9647.95,7069.29 c 0,-89.66 -72.68,-162.34 -162.34,-162.34 -89.66,0 -162.34,72.68 -162.34,162.34 0,89.66 72.68,162.34 162.34,162.34 89.66,0 162.34,-72.68 162.34,-162.34 z"
         style="fill:none;stroke:#dce4f7;stroke-width:40;stroke-linecap:round;stroke-linejoin:round;stroke-miterlimit:10;stroke-dasharray:none;stroke-opacity:1"
         id="path332" />
      <path
         d="m 617.5,6703.97 c 0,-89.66 -72.684,-162.34 -162.34,-162.34 -89.66,0 -162.34,72.68 -162.34,162.34 0,89.66 72.68,162.34 162.34,162.34 89.656,0 162.34,-72.68 162.34,-162.34 z"
         style="fill:none;stroke:#dce4f7;stroke-width:40;stroke-linecap:round;stroke-linejoin:round;stroke-miterlimit:10;stroke-dasharray:none;stroke-opacity:1"
         id="path334" />
      <path
         d="m 9943.28,7992.65 c 0,-118.22 -95.84,-214.06 -214.05,-214.06 -118.23,0 -214.07,95.84 -214.07,214.06 0,118.22 95.84,214.06 214.07,214.06 118.21,0 214.05,-95.84 214.05,-214.06 z"
         style="fill:none;stroke:#dce4f7;stroke-width:40;stroke-linecap:round;stroke-linejoin:round;stroke-miterlimit:10;stroke-dasharray:none;stroke-opacity:1"
         id="path336" />
      <path
         d="m 515.492,7342.46 c 0,-118.22 -95.836,-214.06 -214.058,-214.06 -118.223,0 -214.059,95.84 -214.059,214.06 0,118.22 95.836,214.06 214.059,214.06 118.222,0 214.058,-95.84 214.058,-214.06 z"
         style="fill:none;stroke:#dce4f7;stroke-width:40;stroke-linecap:round;stroke-linejoin:round;stroke-miterlimit:10;stroke-dasharray:none;stroke-opacity:1"
         id="path338" />
      <path
         d="m 3855.33,2636.16 c 0,-118.22 -95.84,-214.06 -214.06,-214.06 -118.23,0 -214.07,95.84 -214.07,214.06 0,118.22 95.84,214.06 214.07,214.06 118.22,0 214.06,-95.84 214.06,-214.06 z"
         style="fill:none;stroke:#dce4f7;stroke-width:40;stroke-linecap:round;stroke-linejoin:round;stroke-miterlimit:10;stroke-dasharray:none;stroke-opacity:1"
         id="path340" />
      <path
         d="m 5401.38,3849.74 c 0,471.3 382.07,853.37 853.37,853.37"
         style="fill:none;stroke:#d44945;stroke-width:40;stroke-linecap:butt;stroke-linejoin:miter;stroke-miterlimit:10;stroke-dasharray:none;stroke-opacity:1"
         id="path342" />
      <path
         d="m 8438.07,6919.67 c 471.31,0 853.38,-382.07 853.38,-853.38"
         style="fill:none;stroke:#d44945;stroke-width:40;stroke-linecap:butt;stroke-linejoin:miter;stroke-miterlimit:10;stroke-dasharray:none;stroke-opacity:1"
         id="path344" />
    </g>
  </g>
</svg>
